<svg width="30" height="30" viewBox="0 0 30 30" fill="none" xmlns="http://www.w3.org/2000/svg">
<g clip-path="url(#clip0_14_79)">
<path d="M20.8777 12.5199L20.6653 13.0769C20.6571 13.0999 19.7937 15.3708 18.836 17.7238C18.0084 19.7616 17.4627 20.9967 17.1075 21.7447C17.0545 21.1066 17.0032 20.1508 16.9721 18.7207C16.9299 16.8128 16.9446 15.0037 16.9446 14.9858L16.95 14.3555H13.3511L13.3132 14.94C13.3122 14.9579 13.1937 16.7725 13.0202 18.6804C12.8856 20.1627 12.7698 21.134 12.6773 21.7695C12.3679 21.134 11.9069 20.1242 11.2261 18.5202C10.3944 16.5592 9.64231 14.6704 9.63499 14.6517L9.11724 13.3516L7.38464 16.8375L12.0588 29.9999H17.9525L23.4173 13.3506L20.8777 12.5199Z" fill="#A0D468"/>
<g opacity="0.1">
<path d="M15.7219 18.7206C15.7535 20.1507 15.928 23.6646 15.9806 24.3026C16.2414 23.7544 16.6049 22.9432 17.1075 21.7447C17.103 21.5955 17.016 20.2331 17.0123 20.072C16.9702 18.1641 16.9446 15.0037 16.9446 14.9858L16.9501 14.3554H15.7L15.6949 14.9857C15.6945 15.0037 15.6803 16.8128 15.7219 18.7206Z" fill="black"/>
<path d="M20.8778 12.5199L20.7395 12.8833L22.1668 13.3507L16.7029 29.9999H17.9526L23.4173 13.3507L20.8778 12.5199Z" fill="black"/>
<path d="M9.97658 18.5201C10.6568 20.1242 12.0635 23.292 12.3725 23.9265C12.4448 23.432 12.5314 22.7316 12.6298 21.7447C12.4893 21.4215 11.3915 18.9093 11.2263 18.5202C10.3946 16.5592 9.64247 14.6704 9.63515 14.6517L9.1174 13.3516L8.4234 14.7478C8.58676 15.157 9.25147 16.811 9.97658 18.5201Z" fill="black"/>
</g>
<path d="M29.3756 7.21346C29.3756 4.89807 27.4979 3.02081 25.1825 3.02081C23.9823 3.02081 22.9001 3.52525 22.1356 4.33369C21.4875 2.85557 20.0116 1.82283 18.294 1.82283C17.3071 1.82283 16.3998 2.16432 15.6834 2.73516C14.6983 1.4521 13.1488 0.624857 11.4061 0.624857C8.57065 0.624857 6.24613 2.81479 6.0319 5.59524C5.6474 5.47939 5.23999 5.4167 4.81746 5.4167C2.50208 5.4167 0.624756 7.29402 0.624756 9.60935C0.624756 11.515 1.89597 13.1231 3.63683 13.6331C3.8561 16.4099 6.17786 18.5942 9.01052 18.5942C9.76493 18.5942 10.4832 18.4386 11.135 18.1585C12.1147 19.1655 13.4843 19.7918 14.9999 19.7918C17.2595 19.7918 19.193 18.4019 19.995 16.43C20.8099 16.9244 21.7647 17.2082 22.7865 17.2082C25.7638 17.2082 28.1771 14.7953 28.1771 11.818C28.1771 11.3062 28.1057 10.8113 27.973 10.3425C28.8336 9.5746 29.3756 8.4576 29.3756 7.21346Z" fill="#76A336"/>
<path d="M30 7.21346C30 4.55705 27.8394 2.39595 25.1825 2.39595C24.1278 2.39595 23.1317 2.72877 22.3059 3.34677C21.4233 2.01971 19.9237 1.19803 18.294 1.19803C17.4114 1.19803 16.5426 1.44384 15.7928 1.89842C14.658 0.685269 13.0897 0 11.406 0C9.88129 0 8.42643 0.57177 7.31049 1.60996C6.37619 2.4788 5.74946 3.60676 5.50547 4.84089C5.27847 4.80796 5.04866 4.7919 4.81751 4.7919C2.1611 4.79196 0 6.95306 0 9.60941C0 10.6719 0.339148 11.6795 0.98047 12.5231C1.51515 13.2258 2.24349 13.7742 3.06053 14.096C3.26105 15.4413 3.9111 16.6773 4.91817 17.613C6.03417 18.6484 7.48715 19.2188 9.01056 19.2188C9.69126 19.2188 10.3555 19.1071 10.9899 18.8855C12.0936 19.8761 13.5021 20.4163 15 20.4163C16.2195 20.4163 17.395 20.0537 18.3974 19.3652C19.1857 18.825 19.8266 18.1146 20.2789 17.287C21.0616 17.6459 21.9167 17.8336 22.7865 17.8336C26.1034 17.8336 28.8024 15.135 28.8024 11.818C28.8024 11.3868 28.7566 10.9588 28.666 10.5408C29.5184 9.64785 30 8.45585 30 7.21346ZM27.5565 9.87631L27.2644 10.1368L27.3715 10.5135C27.4915 10.9355 27.5519 11.3745 27.5519 11.8181C27.5519 14.4457 25.4142 16.5839 22.7866 16.5839C21.9251 16.5839 21.0819 16.3513 20.3467 15.9119C20.2552 15.8377 19.8468 15.4857 19.4678 14.8283C19.411 14.7313 19.3597 14.6315 19.3094 14.5308L18.9038 13.4065C18.7463 12.757 18.6942 12.0515 18.7482 11.2948C18.7482 11.2797 18.75 11.2651 18.75 11.2499C18.75 10.9048 18.4699 10.6251 18.1256 10.6251C17.7951 10.6251 17.525 10.881 17.5021 11.2055L17.5012 11.2051C17.2879 14.1888 18.5632 15.9003 19.2352 16.5857C18.4222 18.1659 16.8036 19.1665 15 19.1665C13.7023 19.1665 12.4888 18.6538 11.5832 17.7228L11.2839 17.4151L10.8888 17.5836C10.2943 17.84 9.66249 17.9681 9.01062 17.9681C7.80398 17.9681 6.6527 17.5167 5.76874 16.6964C4.89626 15.8862 4.36158 14.7903 4.26226 13.6092C4.2673 13.3918 4.34693 11.6148 5.57877 10.5921C6.42612 9.88855 7.66394 9.68576 9.25831 9.98881C9.29628 9.99566 9.33518 9.99983 9.37503 9.99983C9.72021 9.99983 9.99988 9.72015 9.99988 9.37497C9.99988 9.06963 9.78109 8.81603 9.49175 8.76107C7.51329 8.38477 5.92847 8.67728 4.78047 9.63033C3.67039 10.5518 3.257 11.8674 3.10319 12.7367C2.66654 12.4964 2.27923 12.165 1.97577 11.7663C1.50103 11.1419 1.25018 10.3962 1.25018 9.60929C1.25018 7.64225 2.85053 6.0415 4.81756 6.0415C5.1696 6.0415 5.51701 6.09277 5.85118 6.19349L6.59504 6.41826L6.65499 5.64323C6.74698 4.45076 7.28213 3.34296 8.16146 2.52492C9.0459 1.70277 10.1981 1.25007 11.4061 1.25007C12.8811 1.25007 14.2438 1.91424 15.1548 3.07378C15.3425 4.02044 15.624 6.42002 14.0026 7.62304L14.003 7.6235C13.8497 7.73747 13.7499 7.91923 13.7499 8.12478C13.7499 8.46997 14.03 8.75011 14.3752 8.75011C14.5144 8.75011 14.643 8.70341 14.747 8.62653L14.7474 8.627C15.8996 7.77187 16.5236 6.39635 16.5519 4.64858C16.562 3.99536 16.4878 3.40712 16.4118 2.98506C16.974 2.63303 17.6185 2.4481 18.2941 2.4481C19.5832 2.4481 20.7606 3.1421 21.3923 4.24486C21.158 4.54469 20.8284 5.02306 20.5665 5.62366C19.9568 7.02671 20.0025 8.42561 20.6983 9.66982C20.7002 9.6721 20.7011 9.67392 20.702 9.6762C20.7038 9.67802 20.7038 9.67984 20.7056 9.68171C20.8137 9.87168 21.0169 9.99988 21.2494 9.99988C21.5954 9.99988 21.8756 9.72021 21.8756 9.37503C21.8756 9.26334 21.8454 9.15893 21.7941 9.06834H21.7951C21.2897 8.17248 21.2577 7.19289 21.698 6.15558C22.0276 5.38195 22.5128 4.84592 22.577 4.7759L22.5898 4.76307C23.2709 4.04259 24.1919 3.64566 25.1826 3.64566C27.1491 3.64566 28.7494 5.24642 28.7494 7.21346C28.7493 8.22879 28.3154 9.19924 27.5565 9.87631Z" fill="#688E2D"/>
</g>
<defs>
<clipPath id="clip0_14_79">
<rect width="30" height="30" fill="white"/>
</clipPath>
</defs>
</svg>
