<svg width="30" height="30" viewBox="0 0 30 30" fill="none" xmlns="http://www.w3.org/2000/svg">
<g clip-path="url(#clip0_14_26)">
<path fill-rule="evenodd" clip-rule="evenodd" d="M25.9881 19.3893C25.7415 25.2786 20.891 29.9779 14.9412 29.9779C8.83351 29.9779 3.88233 24.8602 3.88233 18.9191C3.88233 18.1249 3.8681 16.5379 5.0588 13.8602C5.77139 12.2578 6.21833 11.2511 6.47057 10.3308C6.60916 9.82506 6.87868 9.02153 7.64704 10.3308C8.1001 11.1028 8.11763 12.2132 8.11763 12.2132C8.11763 12.2132 9.80327 10.9196 10.9412 8.44847C12.6093 4.82576 11.2783 2.66023 10.8235 1.15435C10.6661 0.63341 10.5673 -0.302826 11.647 0.0955274C12.7473 0.501527 15.656 2.53765 17.1764 4.68376C19.3464 7.7467 20.1176 10.6838 20.1176 10.6838C20.1176 10.6838 20.8124 9.82141 21.0588 8.91906C21.337 7.90012 21.3412 6.89094 22.2352 7.978C23.0854 9.01176 24.3481 10.9545 25.0588 12.8014C26.3493 16.1554 25.9881 19.3893 25.9881 19.3893Z" fill="url(#paint0_linear_14_26)"/>
<path fill-rule="evenodd" clip-rule="evenodd" d="M14.9411 29.9779C10.7177 29.9779 7.29407 26.5542 7.29407 22.3308C7.29407 19.7825 8.32101 18.2353 10.4583 16.1372C11.8268 14.7938 13.1076 13.1438 13.6519 12.0202C13.7591 11.7991 14.003 10.6465 14.9434 11.996C15.4367 12.7038 16.2099 13.9625 16.7058 15.0367C17.5607 16.8888 17.7647 18.6838 17.7647 18.6838C17.7647 18.6838 18.6024 18.1901 19.1764 16.9191C19.3615 16.5094 19.7356 14.9586 20.7815 16.5092C21.5489 17.6471 22.6031 19.6929 22.5882 22.3308C22.5882 26.5542 19.1644 29.9779 14.9411 29.9779Z" fill="#FC9502"/>
<path fill-rule="evenodd" clip-rule="evenodd" d="M15.0588 21.6249C16.1471 21.6249 16.1471 23.6401 17.5294 26.3308C18.4499 28.1225 17.0731 29.9779 15.0588 29.9779C13.0446 29.9779 12 28.3451 12 26.3308C12 24.3167 13.9706 21.6249 15.0588 21.6249Z" fill="#FCE202"/>
</g>
<defs>
<linearGradient id="paint0_linear_14_26" x1="14.9577" y1="30" x2="14.9577" y2="0.0221154" gradientUnits="userSpaceOnUse">
<stop stop-color="#FF4C0D"/>
<stop offset="1" stop-color="#FC9502"/>
</linearGradient>
<clipPath id="clip0_14_26">
<rect width="30" height="30" fill="white"/>
</clipPath>
</defs>
</svg>
