<svg width="26" height="30" viewBox="0 0 26 30" fill="none" xmlns="http://www.w3.org/2000/svg">
<path d="M6.63636 27.2727C6.63636 28.2769 5.82236 29.0909 4.81818 29.0909C3.814 29.0909 3 28.2769 3 27.2727V1.81818C3 0.814 3.814 0 4.81818 0C5.82236 0 6.63636 0.814 6.63636 1.81818V27.2727Z" fill="#0052B4"/>
<path d="M25.7273 17.2727H3V2.72727H25.7273L22.0909 10L25.7273 17.2727Z" fill="#FF9811"/>
<path d="M25.7272 17.2727H5.72723L25.7272 2.72727L22.0909 10L25.7272 17.2727Z" fill="#FF5023"/>
<path d="M6.63636 2.72727H3V17.2727H6.63636V2.72727Z" fill="#FFDA44"/>
<path d="M4.81816 30H0.272705V27.2727L4.81816 26.3636V30Z" fill="#0052B4"/>
<path d="M9.36363 30H4.81818V26.3636L9.36363 27.2727V30Z" fill="#006DF0"/>
</svg>
