<svg width="50" height="50" viewBox="0 0 50 50" fill="none" xmlns="http://www.w3.org/2000/svg">
<path d="M23.4375 12.5H26.5625C27.5 12.5 28.125 11.875 28.125 10.9375C28.125 10 27.5 9.375 26.5625 9.375H23.4375C22.5 9.375 21.875 10 21.875 10.9375C21.875 11.875 22.5 12.5 23.4375 12.5Z" fill="#BCBCBC"/>
<path d="M46.7188 32.0312C46.4062 31.5625 45.7812 31.25 45.3125 31.25H43.5938C42.8125 24.375 37.1875 17.5 30 15.3125C26.7188 14.2187 23.125 14.2187 19.8438 15.3125C12.8125 17.5 7.03125 24.375 6.40625 31.25H4.6875C4.21875 31.25 3.59375 31.5625 3.28125 32.0312C2.96875 32.5 2.96875 33.125 3.28125 33.5938C5.46875 37.9687 9.84375 40.625 14.8438 40.625H35.3125C40.1562 40.625 44.6875 37.9687 46.875 33.4375C46.875 32.9687 46.875 32.5 46.7188 32.0312ZM20.7812 18.2812C23.4375 17.5 26.4062 17.5 29.0625 18.2812C34.8438 20 39.6875 25.625 40.4688 31.25H9.53125C10.3125 25.625 15 20.1562 20.7812 18.2812ZM35.1562 37.5H14.8438C12.0312 37.5 9.53125 36.4062 7.65625 34.375H42.3438C40.4688 36.4062 37.9688 37.5 35.1562 37.5Z" fill="#BCBCBC"/>
</svg>
