<svg width="50" height="50" viewBox="0 0 50 50" fill="none" xmlns="http://www.w3.org/2000/svg">
<path d="M33.3333 28.125H34.8958C34.8958 27.2621 34.1962 26.5625 33.3333 26.5625V28.125ZM44.0727 17.7534C44.4029 18.5507 45.3168 18.9293 46.1141 18.5991C46.9114 18.2688 47.29 17.3548 46.9598 16.5576L44.0727 17.7534ZM33.3333 21.875V23.4375C34.1962 23.4375 34.8958 22.7379 34.8958 21.875H33.3333ZM16.6666 28.125V26.5625C15.8037 26.5625 15.1041 27.2621 15.1041 28.125H16.6666ZM16.6666 21.875H15.1041C15.1041 22.7379 15.8037 23.4375 16.6666 23.4375V21.875ZM47.3958 25C47.3958 24.1371 46.6962 23.4375 45.8333 23.4375C44.9704 23.4375 44.2708 24.1371 44.2708 25H47.3958ZM39.5833 33.8542C38.5912 33.8542 37.9254 33.8533 37.4097 33.8181C36.9083 33.784 36.6641 33.7225 36.5033 33.6558L35.3075 36.5431C35.9125 36.7938 36.5364 36.8908 37.197 36.9358C37.8437 36.98 38.6339 36.9792 39.5833 36.9792V33.8542ZM31.7708 28.125C31.7708 29.0854 31.7704 30.1136 31.8123 30.9992C31.8331 31.4433 31.8656 31.8779 31.9189 32.2686C31.9691 32.6363 32.0502 33.0638 32.2068 33.4425L35.0941 32.2467C35.0979 32.2558 35.0866 32.2298 35.0685 32.1517C35.0514 32.0769 35.0331 31.9761 35.0152 31.8456C34.9793 31.5827 34.9525 31.2494 34.9337 30.8521C34.8962 30.0548 34.8958 29.1061 34.8958 28.125H31.7708ZM36.5033 33.6558C35.8654 33.3917 35.3583 32.8846 35.0941 32.2467L32.2068 33.4425C32.7883 34.8463 33.9037 35.9617 35.3075 36.5431L36.5033 33.6558ZM44.2708 29.1667C44.2708 30.1588 44.27 30.8246 44.2347 31.3402C44.2006 31.8417 44.1391 32.0858 44.0727 32.2467L46.9598 33.4425C47.2104 32.8375 47.3075 32.2136 47.3525 31.5529C47.3966 30.9063 47.3958 30.1161 47.3958 29.1667H44.2708ZM39.5833 36.9792C40.5327 36.9792 41.3229 36.98 41.9695 36.9358C42.6302 36.8908 43.2541 36.7938 43.8591 36.5431L42.6633 33.6558C42.5025 33.7225 42.2583 33.784 41.7568 33.8181C41.2412 33.8533 40.5754 33.8542 39.5833 33.8542V36.9792ZM44.0727 32.2467C43.8083 32.8846 43.3012 33.3917 42.6633 33.6558L43.8591 36.5431C45.2629 35.9617 46.3783 34.8463 46.9598 33.4425L44.0727 32.2467ZM39.5833 16.1458C40.5754 16.1458 41.2412 16.1467 41.7568 16.1819C42.2583 16.2161 42.5025 16.2775 42.6633 16.3441L43.8591 13.4569C43.2541 13.2064 42.6302 13.1092 41.9695 13.0641C41.3229 13.02 40.5327 13.0208 39.5833 13.0208V16.1458ZM42.6633 16.3441C43.3012 16.6084 43.8083 17.1153 44.0727 17.7534L46.9598 16.5576C46.3783 15.1537 45.2629 14.0384 43.8591 13.4569L42.6633 16.3441ZM39.5833 13.0208C38.6339 13.0208 37.8437 13.02 37.197 13.0641C36.5364 13.1092 35.9125 13.2064 35.3075 13.4569L36.5033 16.3441C36.6641 16.2775 36.9083 16.2161 37.4097 16.1819C37.9254 16.1467 38.5912 16.1458 39.5833 16.1458V13.0208ZM34.8958 21.875C34.8958 20.894 34.8962 19.9452 34.9337 19.1479C34.9525 18.7506 34.9793 18.4172 35.0152 18.1543C35.0331 18.0239 35.0514 17.9231 35.0685 17.8484C35.0866 17.7702 35.0979 17.7441 35.0941 17.7534L32.2068 16.5576C32.0502 16.9362 31.9691 17.3637 31.9189 17.7316C31.8656 18.122 31.8331 18.5567 31.8123 19.0008C31.7704 19.8865 31.7708 20.9146 31.7708 21.875H34.8958ZM35.3075 13.4569C33.9037 14.0384 32.7883 15.1537 32.2068 16.5576L35.0941 17.7534C35.3583 17.1153 35.8654 16.6084 36.5033 16.3441L35.3075 13.4569ZM5.72913 29.1667V20.8333H2.60413V29.1667H5.72913ZM10.4166 33.8542C9.42454 33.8542 8.75873 33.8533 8.24317 33.8181C7.74165 33.784 7.49746 33.7225 7.33673 33.6558L6.14084 36.5431C6.74581 36.7938 7.36984 36.8908 8.03046 36.9358C8.67704 36.98 9.46729 36.9792 10.4166 36.9792V33.8542ZM2.60413 29.1667C2.60413 30.1161 2.60327 30.9063 2.6474 31.5529C2.69248 32.2136 2.78965 32.8375 3.04023 33.4425L5.92736 32.2467C5.86077 32.0858 5.79938 31.8417 5.76515 31.3402C5.72998 30.8246 5.72913 30.1588 5.72913 29.1667H2.60413ZM7.33673 33.6558C6.69863 33.3917 6.19167 32.8846 5.92736 32.2467L3.04023 33.4425C3.62171 34.8463 4.73702 35.9617 6.14084 36.5431L7.33673 33.6558ZM15.1041 28.125C15.1041 29.1061 15.1038 30.0548 15.0662 30.8521C15.0475 31.2494 15.0206 31.5827 14.9847 31.8456C14.9669 31.9761 14.9485 32.0769 14.9313 32.1517C14.9134 32.2298 14.902 32.2558 14.9059 32.2467L17.793 33.4425C17.9499 33.0638 18.0307 32.6363 18.081 32.2686C18.1343 31.8779 18.1668 31.4433 18.1878 30.9992C18.2295 30.1136 18.2291 29.0854 18.2291 28.125H15.1041ZM10.4166 36.9792C11.366 36.9792 12.1562 36.98 12.8028 36.9358C13.4634 36.8908 14.0874 36.7938 14.6924 36.5431L13.4965 33.6558C13.3358 33.7225 13.0916 33.784 12.5901 33.8181C12.0745 33.8533 11.4087 33.8542 10.4166 33.8542V36.9792ZM14.9059 32.2467C14.6416 32.8846 14.1346 33.3917 13.4965 33.6558L14.6924 36.5431C16.0962 35.9617 17.2115 34.8463 17.793 33.4425L14.9059 32.2467ZM10.4166 16.1458C11.4087 16.1458 12.0745 16.1467 12.5901 16.1819C13.0916 16.2161 13.3358 16.2775 13.4965 16.3441L14.6924 13.4569C14.0874 13.2064 13.4634 13.1092 12.8028 13.0641C12.1562 13.02 11.366 13.0208 10.4166 13.0208V16.1458ZM18.2291 21.875C18.2291 20.9146 18.2295 19.8865 18.1878 19.0008C18.1668 18.5567 18.1343 18.122 18.081 17.7316C18.0307 17.3637 17.9499 16.9362 17.793 16.5576L14.9059 17.7534C14.902 17.7441 14.9134 17.7702 14.9313 17.8484C14.9485 17.9231 14.9669 18.0239 14.9847 18.1543C15.0206 18.4172 15.0475 18.7506 15.0662 19.1479C15.1038 19.9452 15.1041 20.894 15.1041 21.875H18.2291ZM13.4965 16.3441C14.1346 16.6084 14.6416 17.1153 14.9059 17.7534L17.793 16.5576C17.2115 15.1537 16.0962 14.0384 14.6924 13.4569L13.4965 16.3441ZM10.4166 13.0208C9.46729 13.0208 8.67704 13.02 8.03046 13.0641C7.36984 13.1092 6.74581 13.2064 6.14084 13.4569L7.33673 16.3441C7.49746 16.2775 7.74165 16.2161 8.24317 16.1819C8.75873 16.1467 9.42454 16.1458 10.4166 16.1458V13.0208ZM5.72913 20.8333C5.72913 19.8413 5.72998 19.1754 5.76515 18.6599C5.79938 18.1584 5.86077 17.9142 5.92736 17.7534L3.04023 16.5576C2.78965 17.1625 2.69248 17.7866 2.6474 18.4472C2.60327 19.0938 2.60413 19.884 2.60413 20.8333H5.72913ZM6.14084 13.4569C4.73702 14.0384 3.62171 15.1537 3.04023 16.5576L5.92736 17.7534C6.19167 17.1153 6.69863 16.6084 7.33673 16.3441L6.14084 13.4569ZM16.6666 23.4375H33.3333V20.3125H16.6666V23.4375ZM33.3333 26.5625H16.6666V29.6875H33.3333V26.5625ZM44.2708 25V29.1667H47.3958V25H44.2708Z" fill="#4EA8DE"/>
</svg>
