<svg width="50" height="50" viewBox="0 0 50 50" fill="none" xmlns="http://www.w3.org/2000/svg">
<path d="M33.3334 28.125H34.8959C34.8959 27.2621 34.1963 26.5625 33.3334 26.5625V28.125ZM44.0727 17.7534C44.4029 18.5507 45.3169 18.9293 46.1142 18.5991C46.9115 18.2688 47.29 17.3548 46.9598 16.5576L44.0727 17.7534ZM33.3334 21.875V23.4375C34.1963 23.4375 34.8959 22.7379 34.8959 21.875H33.3334ZM16.6667 28.125V26.5625C15.8038 26.5625 15.1042 27.2621 15.1042 28.125H16.6667ZM16.6667 21.875H15.1042C15.1042 22.7379 15.8038 23.4375 16.6667 23.4375V21.875ZM47.3959 25C47.3959 24.1371 46.6963 23.4375 45.8334 23.4375C44.9704 23.4375 44.2709 24.1371 44.2709 25H47.3959ZM39.5834 33.8542C38.5913 33.8542 37.9254 33.8533 37.4098 33.8181C36.9084 33.784 36.6642 33.7225 36.5034 33.6558L35.3075 36.5431C35.9125 36.7938 36.5365 36.8908 37.1971 36.9358C37.8438 36.98 38.634 36.9792 39.5834 36.9792V33.8542ZM31.7709 28.125C31.7709 29.0854 31.7704 30.1136 31.8123 30.9992C31.8331 31.4433 31.8656 31.8779 31.919 32.2686C31.9692 32.6363 32.0502 33.0638 32.2069 33.4425L35.0942 32.2467C35.0979 32.2558 35.0867 32.2298 35.0686 32.1517C35.0515 32.0769 35.0331 31.9761 35.0152 31.8456C34.9794 31.5827 34.9525 31.2494 34.9338 30.8521C34.8963 30.0548 34.8959 29.1061 34.8959 28.125H31.7709ZM36.5034 33.6558C35.8654 33.3917 35.3584 32.8846 35.0942 32.2467L32.2069 33.4425C32.7884 34.8463 33.9038 35.9617 35.3075 36.5431L36.5034 33.6558ZM44.2709 29.1667C44.2709 30.1588 44.27 30.8246 44.2348 31.3402C44.2006 31.8417 44.1392 32.0858 44.0727 32.2467L46.9598 33.4425C47.2104 32.8375 47.3075 32.2136 47.3525 31.5529C47.3967 30.9063 47.3959 30.1161 47.3959 29.1667H44.2709ZM39.5834 36.9792C40.5327 36.9792 41.3229 36.98 41.9696 36.9358C42.6302 36.8908 43.2542 36.7938 43.8592 36.5431L42.6633 33.6558C42.5025 33.7225 42.2584 33.784 41.7569 33.8181C41.2413 33.8533 40.5754 33.8542 39.5834 33.8542V36.9792ZM44.0727 32.2467C43.8083 32.8846 43.3013 33.3917 42.6633 33.6558L43.8592 36.5431C45.2629 35.9617 46.3784 34.8463 46.9598 33.4425L44.0727 32.2467ZM39.5834 16.1458C40.5754 16.1458 41.2413 16.1467 41.7569 16.1819C42.2584 16.2161 42.5025 16.2775 42.6633 16.3441L43.8592 13.4569C43.2542 13.2064 42.6302 13.1092 41.9696 13.0641C41.3229 13.02 40.5327 13.0208 39.5834 13.0208V16.1458ZM42.6633 16.3441C43.3013 16.6084 43.8083 17.1153 44.0727 17.7534L46.9598 16.5576C46.3784 15.1537 45.2629 14.0384 43.8592 13.4569L42.6633 16.3441ZM39.5834 13.0208C38.634 13.0208 37.8438 13.02 37.1971 13.0641C36.5365 13.1092 35.9125 13.2064 35.3075 13.4569L36.5034 16.3441C36.6642 16.2775 36.9084 16.2161 37.4098 16.1819C37.9254 16.1467 38.5913 16.1458 39.5834 16.1458V13.0208ZM34.8959 21.875C34.8959 20.894 34.8963 19.9452 34.9338 19.1479C34.9525 18.7506 34.9794 18.4172 35.0152 18.1543C35.0331 18.0239 35.0515 17.9231 35.0686 17.8484C35.0867 17.7702 35.0979 17.7441 35.0942 17.7534L32.2069 16.5576C32.0502 16.9362 31.9692 17.3637 31.919 17.7316C31.8656 18.122 31.8331 18.5567 31.8123 19.0008C31.7704 19.8865 31.7709 20.9146 31.7709 21.875H34.8959ZM35.3075 13.4569C33.9038 14.0384 32.7884 15.1537 32.2069 16.5576L35.0942 17.7534C35.3584 17.1153 35.8654 16.6084 36.5034 16.3441L35.3075 13.4569ZM5.72919 29.1667V20.8333H2.60419V29.1667H5.72919ZM10.4167 33.8542C9.4246 33.8542 8.75879 33.8533 8.24323 33.8181C7.74171 33.784 7.49752 33.7225 7.33679 33.6558L6.1409 36.5431C6.74588 36.7938 7.3699 36.8908 8.03052 36.9358C8.6771 36.98 9.46735 36.9792 10.4167 36.9792V33.8542ZM2.60419 29.1667C2.60419 30.1161 2.60333 30.9063 2.64746 31.5529C2.69254 32.2136 2.78971 32.8375 3.04029 33.4425L5.92742 32.2467C5.86083 32.0858 5.79944 31.8417 5.76521 31.3402C5.73004 30.8246 5.72919 30.1588 5.72919 29.1667H2.60419ZM7.33679 33.6558C6.69869 33.3917 6.19173 32.8846 5.92742 32.2467L3.04029 33.4425C3.62177 34.8463 4.73708 35.9617 6.1409 36.5431L7.33679 33.6558ZM15.1042 28.125C15.1042 29.1061 15.1038 30.0548 15.0663 30.8521C15.0476 31.2494 15.0206 31.5827 14.9847 31.8456C14.9669 31.9761 14.9485 32.0769 14.9314 32.1517C14.9134 32.2298 14.9021 32.2558 14.906 32.2467L17.7931 33.4425C17.9499 33.0638 18.0308 32.6363 18.081 32.2686C18.1343 31.8779 18.1669 31.4433 18.1878 30.9992C18.2295 30.1136 18.2292 29.0854 18.2292 28.125H15.1042ZM10.4167 36.9792C11.366 36.9792 12.1563 36.98 12.8029 36.9358C13.4635 36.8908 14.0875 36.7938 14.6925 36.5431L13.4966 33.6558C13.3359 33.7225 13.0917 33.784 12.5901 33.8181C12.0746 33.8533 11.4088 33.8542 10.4167 33.8542V36.9792ZM14.906 32.2467C14.6416 32.8846 14.1347 33.3917 13.4966 33.6558L14.6925 36.5431C16.0963 35.9617 17.2116 34.8463 17.7931 33.4425L14.906 32.2467ZM10.4167 16.1458C11.4088 16.1458 12.0746 16.1467 12.5901 16.1819C13.0917 16.2161 13.3359 16.2775 13.4966 16.3441L14.6925 13.4569C14.0875 13.2064 13.4635 13.1092 12.8029 13.0641C12.1563 13.02 11.366 13.0208 10.4167 13.0208V16.1458ZM18.2292 21.875C18.2292 20.9146 18.2295 19.8865 18.1878 19.0008C18.1669 18.5567 18.1343 18.122 18.081 17.7316C18.0308 17.3637 17.9499 16.9362 17.7931 16.5576L14.906 17.7534C14.9021 17.7441 14.9134 17.7702 14.9314 17.8484C14.9485 17.9231 14.9669 18.0239 14.9847 18.1543C15.0206 18.4172 15.0476 18.7506 15.0663 19.1479C15.1038 19.9452 15.1042 20.894 15.1042 21.875H18.2292ZM13.4966 16.3441C14.1347 16.6084 14.6416 17.1153 14.906 17.7534L17.7931 16.5576C17.2116 15.1537 16.0963 14.0384 14.6925 13.4569L13.4966 16.3441ZM10.4167 13.0208C9.46735 13.0208 8.6771 13.02 8.03052 13.0641C7.3699 13.1092 6.74588 13.2064 6.1409 13.4569L7.33679 16.3441C7.49752 16.2775 7.74171 16.2161 8.24323 16.1819C8.75879 16.1467 9.4246 16.1458 10.4167 16.1458V13.0208ZM5.72919 20.8333C5.72919 19.8413 5.73004 19.1754 5.76521 18.6599C5.79944 18.1584 5.86083 17.9142 5.92742 17.7534L3.04029 16.5576C2.78971 17.1625 2.69254 17.7866 2.64746 18.4472C2.60333 19.0938 2.60419 19.884 2.60419 20.8333H5.72919ZM6.1409 13.4569C4.73708 14.0384 3.62177 15.1537 3.04029 16.5576L5.92742 17.7534C6.19173 17.1153 6.69869 16.6084 7.33679 16.3441L6.1409 13.4569ZM16.6667 23.4375H33.3334V20.3125H16.6667V23.4375ZM33.3334 26.5625H16.6667V29.6875H33.3334V26.5625ZM44.2709 25V29.1667H47.3959V25H44.2709Z" fill="#BCBCBC"/>
</svg>
