<svg width="60" height="60" viewBox="0 0 60 60" fill="none" xmlns="http://www.w3.org/2000/svg">
<g clip-path="url(#clip0_22_1130)">
<path d="M54.5337 25.067C53.8483 24.4169 53.1094 23.823 52.3262 23.2892C51.5877 22.7861 50.8108 22.336 49.9977 21.9488C49.9862 21.9433 49.974 21.9383 49.9626 21.9328C49.1712 21.5579 48.3477 21.2408 47.4973 20.9866C46.6868 20.7444 45.8517 20.5597 44.9968 20.4369C44.1798 20.3197 43.3453 20.2575 42.4963 20.2575C42.2875 20.2575 42.0799 20.2617 41.8729 20.2688C41.8041 20.2713 41.7359 20.276 41.6673 20.2791C41.5296 20.2856 41.3919 20.2923 41.2547 20.302C41.173 20.3076 41.0918 20.3157 41.0104 20.3225C40.8876 20.333 40.7647 20.3434 40.6427 20.3564C40.5559 20.3655 40.4695 20.3765 40.383 20.3868C40.2674 20.4008 40.1517 20.4152 40.0366 20.4315C39.9478 20.4441 39.859 20.458 39.7703 20.4718C39.6587 20.4893 39.5476 20.5077 39.4369 20.5273C39.347 20.5432 39.2577 20.5598 39.1685 20.5771C39.06 20.598 38.9518 20.6202 38.8441 20.6431C38.7704 20.6588 38.6969 20.6751 38.6235 20.6916C38.6073 20.6953 38.591 20.6987 38.5748 20.7023C38.469 20.7267 38.3634 20.7525 38.2584 20.7787C38.1689 20.8011 38.0794 20.8234 37.9904 20.847C37.9091 20.8687 37.8284 20.8919 37.7475 20.915C37.725 20.9214 37.7021 20.9275 37.6795 20.934C37.6539 20.9414 37.6282 20.949 37.6025 20.9564C37.5397 20.9744 37.4766 20.992 37.4142 21.0111C37.3113 21.0424 37.2094 21.0759 37.1073 21.1089C37.0376 21.1316 36.9676 21.1541 36.8981 21.1771C36.8809 21.1828 36.8637 21.1882 36.8466 21.194C36.7431 21.2294 36.6409 21.2674 36.5381 21.3048C36.4818 21.3253 36.4256 21.3467 36.3694 21.3676C36.3131 21.3884 36.2565 21.4087 36.2006 21.4304C36.1273 21.4587 36.0547 21.4887 35.9817 21.5179C35.9087 21.5471 35.8354 21.5751 35.7628 21.6055C35.7402 21.6149 35.7177 21.6253 35.6951 21.6351C35.6208 21.6673 35.5469 21.6998 35.4727 21.7325C35.3909 21.7685 35.3083 21.8036 35.2268 21.8409C35.1278 21.8864 35.0298 21.9343 34.9316 21.9816C34.8547 22.0187 34.7774 22.055 34.7012 22.0932C34.6019 22.1429 34.5039 22.1943 34.4057 22.2459C34.3326 22.2842 34.259 22.3224 34.1864 22.3618C34.0873 22.4156 33.9889 22.4708 33.891 22.5264C33.8215 22.5659 33.752 22.6054 33.6831 22.6458C33.5836 22.704 33.4851 22.7634 33.3872 22.8234C33.3218 22.8632 33.257 22.9035 33.1923 22.9444C33.0923 23.0075 32.9931 23.0713 32.8945 23.1361C32.8346 23.1756 32.7749 23.2158 32.7157 23.256C32.6143 23.3247 32.5132 23.3937 32.4134 23.4644C32.3605 23.5019 32.308 23.5404 32.2555 23.5784C32.228 23.5982 32.2011 23.6187 32.1738 23.6388C32.0969 23.6947 32.0199 23.7504 31.9444 23.8077C31.9025 23.8396 31.8611 23.8724 31.8194 23.9045C31.7078 23.9907 31.5965 24.0773 31.4872 24.1659C31.4698 24.1798 31.4528 24.1947 31.4355 24.2089C31.1626 24.4321 30.8967 24.6631 30.6378 24.902C30.379 25.1409 30.1273 25.3873 29.8835 25.6411C29.8775 25.6473 29.8715 25.6534 29.8654 25.6596C29.8596 25.6656 29.8536 25.6716 29.8477 25.6777C29.7401 25.7901 29.6351 25.9046 29.5306 26.0198C29.5188 26.0329 29.5068 26.0459 29.4948 26.0591C29.4828 26.0723 29.4707 26.0851 29.4589 26.0985C29.3602 26.2087 29.2633 26.3207 29.1674 26.4334C29.1399 26.4658 29.1121 26.498 29.0847 26.5306C28.9913 26.6419 28.8997 26.7546 28.809 26.8683C28.7817 26.9028 28.754 26.9373 28.7269 26.972C28.6696 27.045 28.6137 27.1194 28.5574 27.1934C28.5255 27.2352 28.4928 27.2766 28.4614 27.3188C28.4359 27.3531 28.4104 27.3876 28.385 27.4221C28.3601 27.456 28.3364 27.4905 28.3116 27.5244C28.2493 27.6103 28.1869 27.696 28.1262 27.7832C28.1047 27.8142 28.0836 27.8454 28.0623 27.8763C27.9752 28.0033 27.8891 28.1309 27.8052 28.2601C27.7906 28.2825 27.7767 28.3051 27.7623 28.3273C27.6727 28.4666 27.5846 28.6069 27.4988 28.7487C27.3798 28.946 27.2654 29.1463 27.1539 29.3484C27.1082 29.4314 27.0625 29.5146 27.0184 29.5985C26.9841 29.6625 26.9505 29.7267 26.9173 29.7912C26.8375 29.9463 26.759 30.1022 26.6838 30.2602C26.3018 31.0622 25.9795 31.8978 25.7218 32.7607C25.4796 33.5711 25.2949 34.4065 25.1721 35.2612C25.0548 36.0782 24.9927 36.9128 24.9927 37.7617C24.9927 37.9934 24.9983 38.2237 25.0073 38.4533C25.0104 38.527 25.0149 38.6003 25.0188 38.6738C25.027 38.8304 25.0363 38.9863 25.0487 39.1418C25.0554 39.2262 25.0629 39.3104 25.0707 39.3946C25.0844 39.5415 25.1 39.6877 25.1172 39.8334C25.1272 39.9162 25.1366 39.9992 25.1476 40.0816C25.1689 40.2411 25.1931 40.3996 25.2187 40.5578C25.2293 40.6225 25.2381 40.6875 25.2492 40.752C25.2866 40.9671 25.3277 41.1811 25.3727 41.3935C25.3878 41.465 25.4054 41.5356 25.4213 41.6066C25.4538 41.751 25.4872 41.895 25.5232 42.0382C25.5464 42.1293 25.5706 42.2197 25.5952 42.3103C25.6283 42.4326 25.6623 42.5544 25.6978 42.6756C25.7258 42.7706 25.7542 42.8654 25.7837 42.9598C25.8202 43.077 25.8587 43.1933 25.8977 43.3095C25.929 43.4026 25.9593 43.4961 25.9923 43.5885C26.0383 43.7188 26.0873 43.8476 26.1364 43.9766C26.1908 44.1191 26.2472 44.2608 26.3052 44.4016C26.354 44.52 26.4025 44.6387 26.454 44.7559C26.4981 44.8566 26.5443 44.9558 26.5902 45.0553C26.634 45.1507 26.6781 45.2459 26.7236 45.3402C26.7731 45.4429 26.824 45.5447 26.8753 45.6463C26.9206 45.7356 26.9669 45.8245 27.0138 45.913C27.0676 46.0152 27.1218 46.1173 27.1779 46.218C27.2252 46.3037 27.2745 46.3881 27.3234 46.4728C27.3818 46.5738 27.4389 46.6755 27.4991 46.7751L27.4992 46.7753C27.5949 46.9336 27.693 47.0904 27.7936 47.2454C27.839 47.316 27.8864 47.3855 27.9329 47.4553C28.0079 47.5678 28.0839 47.6797 28.1618 47.7903C28.2028 47.849 28.2438 47.9075 28.2854 47.9656C28.4061 48.133 28.5283 48.2992 28.6546 48.4623C28.7825 48.6273 28.9134 48.7901 29.0469 48.9504C29.4476 49.4312 29.8735 49.8902 30.3228 50.3257C30.7776 50.7664 31.2559 51.1829 31.7561 51.5725C31.9229 51.7026 32.092 51.8295 32.2634 51.9534C32.9834 52.4739 33.7444 52.9413 34.5403 53.3493C36.9285 54.5736 39.633 55.265 42.496 55.265C52.1474 55.265 59.9994 47.413 59.9994 37.7616C59.9997 32.7687 57.8979 28.2586 54.5337 25.067Z" fill="#C2FB3B"/>
<path d="M38.7629 36.493L40.3289 38.0588L42.496 35.8917V20.2577C42.2873 20.2577 42.0797 20.2619 41.8727 20.2691C41.8039 20.2715 41.7357 20.2762 41.6671 20.2794C41.5294 20.2858 41.3917 20.2925 41.2544 20.3022C41.1728 20.3078 41.0916 20.3159 41.0102 20.3227C40.8874 20.3333 40.7645 20.3436 40.6425 20.3566C40.5557 20.3657 40.4693 20.3768 40.3828 20.3871C40.2671 20.401 40.1515 20.4154 40.0364 20.4317C39.9476 20.4444 39.8588 20.4582 39.77 20.472C39.6585 20.4895 39.5474 20.5079 39.4366 20.5276C39.3468 20.5434 39.2575 20.56 39.1683 20.5774C39.0598 20.5982 38.9516 20.6204 38.8439 20.6434C38.754 20.6626 38.6643 20.682 38.5747 20.7025C38.4689 20.7269 38.3633 20.7527 38.2583 20.7789C38.1688 20.8013 38.0793 20.8236 37.9903 20.8473C37.8861 20.8751 37.7828 20.9046 37.6796 20.9343C37.5911 20.9596 37.5021 20.9845 37.4141 21.0113C37.3112 21.0426 37.2093 21.0761 37.1072 21.1092C37.0204 21.1373 36.9328 21.1647 36.8467 21.1941C36.7432 21.2295 36.641 21.2675 36.5383 21.3049C36.4254 21.3459 36.3126 21.3873 36.2009 21.4304C36.0542 21.4871 35.908 21.5447 35.7631 21.6052C35.6656 21.6461 35.5697 21.6896 35.473 21.7321C35.3912 21.7681 35.3086 21.8033 35.2272 21.8405C35.1282 21.886 35.0302 21.9339 34.932 21.9813C34.8551 22.0183 34.7778 22.0546 34.7016 22.0928C34.6022 22.1425 34.5043 22.194 34.4061 22.2455C34.3329 22.2838 34.2593 22.322 34.1868 22.3614C34.0877 22.4152 33.9892 22.4704 33.8914 22.5261C33.8219 22.5656 33.7524 22.6051 33.6835 22.6455C33.584 22.7036 33.4854 22.763 33.3876 22.823C33.3222 22.8629 33.2574 22.9032 33.1927 22.9441C33.0926 23.0071 32.9935 23.071 32.8948 23.1358C32.8349 23.1753 32.7753 23.2155 32.7161 23.2557C32.6146 23.3243 32.5136 23.3934 32.4138 23.464C32.3609 23.5015 32.3084 23.5401 32.2559 23.5781C32.1514 23.6538 32.0472 23.7296 31.9447 23.8074C31.9027 23.8393 31.8614 23.8721 31.8196 23.9042C31.7081 23.9903 31.5967 24.0769 31.4874 24.1655C31.4701 24.1795 31.4531 24.1943 31.4357 24.2085C30.8901 24.6548 30.3717 25.133 29.8837 25.6408C29.872 25.6531 29.8597 25.6651 29.8481 25.6773C29.7405 25.7897 29.6355 25.9042 29.531 26.0194C29.5072 26.0458 29.4832 26.0716 29.4593 26.0979C29.3606 26.2081 29.2637 26.3201 29.1678 26.4328C29.1403 26.4652 29.1125 26.4974 29.0851 26.53C28.9917 26.6413 28.9 26.754 28.8093 26.8677C28.782 26.9022 28.7544 26.9367 28.7273 26.9714C28.6374 27.0859 28.549 27.2015 28.4618 27.3183C28.4362 27.3526 28.4108 27.3871 28.3854 27.4217C28.2978 27.5411 28.2113 27.6612 28.1266 27.7827C28.1051 27.8138 28.084 27.8449 28.0626 27.8759C27.9756 28.0028 27.8894 28.1304 27.8055 28.2597C27.791 28.282 27.777 28.3047 27.7626 28.3268C27.6731 28.4661 27.585 28.6064 27.4992 28.7482C27.3801 28.9456 27.2658 29.1458 27.1543 29.348C27.1086 29.4309 27.0629 29.5141 27.0189 29.598C26.9846 29.662 26.951 29.7262 26.9178 29.7907C26.838 29.9459 26.7595 30.1017 26.6843 30.2597C26.3023 31.0617 25.98 31.8974 25.7223 32.7602C25.4801 33.5707 25.2954 34.406 25.1726 35.2607C25.0553 36.0778 24.9932 36.9124 24.9932 37.7613C24.9932 37.9929 24.9988 38.2232 25.0078 38.4528C25.0109 38.5265 25.0154 38.5999 25.0193 38.6733C25.0275 38.8299 25.0368 38.9859 25.0492 39.1414C25.0559 39.2257 25.0634 39.3099 25.0712 39.3941C25.0849 39.541 25.1005 39.6872 25.1177 39.8329C25.1277 39.9157 25.1371 39.9987 25.1481 40.0811C25.1694 40.2406 25.1936 40.3991 25.2192 40.5573C25.2298 40.622 25.2386 40.6871 25.2497 40.7515C25.2871 40.9667 25.3282 41.1807 25.3732 41.393C25.3883 41.4645 25.4059 41.5351 25.4218 41.6062C25.4543 41.7505 25.4877 41.8946 25.5237 42.0378C25.5469 42.1288 25.5711 42.2193 25.5957 42.3099C25.6288 42.4321 25.6628 42.554 25.6983 42.6751C25.7263 42.7702 25.7546 42.865 25.7842 42.9593C25.8207 43.0765 25.8592 43.1929 25.8982 43.309C25.9295 43.4022 25.9598 43.4957 25.9928 43.588C26.0388 43.7183 26.0878 43.8471 26.1369 43.9761C26.1913 44.1186 26.2476 44.2603 26.3057 44.4012C26.3545 44.5195 26.403 44.6382 26.4545 44.7554C26.4985 44.8561 26.5448 44.9554 26.5907 45.0548C26.6345 45.1502 26.6785 45.2454 26.7241 45.3397C26.7736 45.4424 26.8244 45.5442 26.8758 45.6458C26.9211 45.7351 26.9674 45.8241 27.0143 45.9125C27.0681 46.0147 27.1223 46.1168 27.1783 46.2176C27.2257 46.3032 27.275 46.3876 27.3239 46.4723C27.3822 46.5733 27.4394 46.6751 27.4996 46.7747L27.4997 46.7748C27.5954 46.9331 27.6935 47.0899 27.794 47.2449C27.8395 47.3155 27.8869 47.385 27.9334 47.4548C28.0084 47.5673 28.0844 47.6792 28.1622 47.7899C28.2033 47.8486 28.2443 47.907 28.2859 47.9652C28.4066 48.1325 28.5288 48.2987 28.6551 48.4618C29.1665 49.1219 29.7243 49.7445 30.3233 50.325C30.9297 50.9125 31.578 51.4569 32.264 51.9528C35.1437 54.0351 38.679 55.2643 42.4966 55.2643V42.9641V42.964L42.0976 43.3633C41.6093 43.8516 40.9693 44.0956 40.3296 44.0956C39.6898 44.0956 39.0497 43.8515 38.5616 43.3633L37.591 42.3926L35.2277 40.0293C34.2511 39.0528 34.2511 37.4695 35.2277 36.493C36.2034 35.5167 37.7867 35.5167 38.7629 36.493Z" fill="#9CDD05"/>
<path d="M38.754 4.7354C34.6597 4.7354 30.6145 6.27722 27.4998 8.94943C27.4998 8.94943 27.4995 8.94931 27.4994 8.94908C24.3841 6.27687 20.3391 4.73563 16.245 4.73563C7.13573 4.7354 0 11.8711 0 20.9804C0 31.9917 7.66646 38.722 19.2712 48.9096C20.2631 49.7804 21.2868 50.6791 22.3401 51.6106C22.3472 51.6171 22.3546 51.6235 22.3619 51.6298L25.8655 54.6563C26.3346 55.0618 26.9169 55.2643 27.4994 55.2646C27.4997 55.2646 27.5002 55.2646 27.5002 55.2646C28.0828 55.2646 28.6654 55.0618 29.135 54.6562L32.2638 51.9532C31.578 51.4572 30.9295 50.913 30.3231 50.3253C29.7241 49.7449 29.1666 49.1223 28.6549 48.4622C28.5286 48.2992 28.4063 48.1331 28.2857 47.9655C28.2438 47.9075 28.2029 47.8488 28.1619 47.7902C28.0842 47.6795 28.0079 47.5678 27.9331 47.4552C27.8864 47.3855 27.8392 47.316 27.7937 47.2453C27.6934 47.0901 27.5952 46.9336 27.4994 46.7752L27.4992 46.775C27.4392 46.6753 27.3819 46.5737 27.3236 46.4727C27.2747 46.388 27.2254 46.3035 27.178 46.2179C27.122 46.117 27.0679 46.0151 27.014 45.9129C26.9671 45.8244 26.9208 45.7357 26.8755 45.6462C26.8239 45.5447 26.7733 45.4429 26.7238 45.3401C26.6783 45.2457 26.6342 45.1506 26.5903 45.0552C26.5445 44.9555 26.498 44.8563 26.4542 44.7558C26.4026 44.6386 26.3541 44.5201 26.3053 44.4015C26.2473 44.2607 26.191 44.1191 26.1366 43.9765C26.0874 43.8476 26.0384 43.7188 25.9925 43.5884C25.9596 43.4959 25.9289 43.4025 25.8979 43.3094C25.8591 43.1933 25.8205 43.0769 25.7839 42.9597C25.7543 42.8653 25.726 42.7704 25.698 42.6755C25.6625 42.5543 25.6285 42.4324 25.5954 42.3102C25.5711 42.2198 25.5466 42.1292 25.5234 42.0381C25.4871 41.895 25.454 41.7509 25.4215 41.6065C25.4055 41.5354 25.388 41.4648 25.3729 41.3934C25.3278 41.181 25.2865 40.9671 25.2494 40.7519C25.2384 40.6874 25.2293 40.6224 25.2189 40.5577C25.1934 40.3995 25.1691 40.2409 25.1478 40.0815C25.137 39.999 25.1274 39.9161 25.1174 39.8332C25.1001 39.6874 25.0846 39.5413 25.0709 39.3945C25.063 39.3104 25.0555 39.2261 25.0489 39.1417C25.0367 38.9862 25.0272 38.8301 25.019 38.6737C25.0151 38.6002 25.0103 38.5269 25.0075 38.4531C24.9985 38.2236 24.9929 37.9934 24.9929 37.7616C24.9929 36.9128 25.0548 36.0781 25.1723 35.2611C25.2951 34.4065 25.4799 33.5711 25.722 32.7606C25.9799 31.8977 26.3019 31.0621 26.684 30.26C26.7592 30.1022 26.8377 29.9461 26.9175 29.7911C26.9506 29.7266 26.9846 29.6625 27.0185 29.5984C27.0631 29.5147 27.1082 29.4314 27.154 29.3483C27.2653 29.1462 27.3798 28.9459 27.4989 28.7486C27.5845 28.6065 27.6728 28.4665 27.7623 28.3272C27.7766 28.3048 27.7907 28.2822 27.8052 28.26C27.8891 28.1309 27.9753 28.0031 28.0623 27.8762C28.0836 27.8451 28.1049 27.8139 28.1263 27.7831C28.211 27.6615 28.2974 27.5413 28.385 27.422C28.4104 27.3876 28.4359 27.353 28.4615 27.3187C28.5485 27.2019 28.637 27.0863 28.727 26.9718C28.754 26.9371 28.7817 26.9026 28.809 26.8681C28.8999 26.7544 28.9916 26.6417 29.0848 26.5303C29.1121 26.4979 29.14 26.4657 29.1675 26.4332C29.2635 26.3205 29.3602 26.2084 29.4589 26.0983C29.4827 26.0719 29.5068 26.0461 29.5307 26.0198C29.6352 25.9046 29.7404 25.7901 29.8478 25.6777C29.8595 25.6654 29.8718 25.6533 29.8834 25.6411C30.3715 25.1334 30.8896 24.6549 31.4354 24.2089C31.4528 24.1947 31.4696 24.1801 31.4871 24.1659C31.5967 24.077 31.7078 23.9907 31.8193 23.9045C31.861 23.8723 31.9023 23.8395 31.9444 23.8077C32.0469 23.7299 32.1511 23.654 32.2556 23.5784C32.3081 23.5402 32.3606 23.5019 32.4135 23.4644C32.5134 23.3937 32.6143 23.3247 32.7158 23.256C32.775 23.2158 32.8346 23.1756 32.8945 23.1362C32.9932 23.0711 33.0926 23.0075 33.1924 22.9444C33.2571 22.9037 33.3219 22.8635 33.3873 22.8234C33.4855 22.7634 33.5838 22.704 33.6832 22.6458C33.752 22.6055 33.8216 22.566 33.8911 22.5264C33.989 22.4709 34.0875 22.4156 34.1865 22.3618C34.2591 22.3224 34.3325 22.2843 34.4057 22.2459C34.5041 22.1943 34.6021 22.1429 34.7013 22.0932C34.7775 22.055 34.8548 22.0187 34.9317 21.9816C35.0299 21.9343 35.1277 21.8865 35.2269 21.8409C35.3082 21.8035 35.3907 21.7686 35.4727 21.7325C35.5694 21.69 35.6653 21.6464 35.7628 21.6056C35.9075 21.5451 36.0539 21.4873 36.2006 21.4307C36.3124 21.3874 36.4253 21.3462 36.538 21.3052C36.6405 21.2678 36.7428 21.23 36.8464 21.1945C36.9328 21.165 37.0201 21.1378 37.1069 21.1095C37.209 21.0764 37.3109 21.0428 37.4138 21.0117C37.5017 20.9848 37.5906 20.96 37.6792 20.9347C37.7825 20.905 37.8857 20.8755 37.99 20.8476C38.0791 20.8238 38.1685 20.8016 38.258 20.7793C38.3633 20.7529 38.4687 20.7271 38.5744 20.7029C38.664 20.6823 38.7538 20.6629 38.8436 20.6437C38.9513 20.6207 39.0595 20.5986 39.168 20.5777C39.2572 20.5604 39.3465 20.5438 39.4363 20.5279C39.5471 20.5082 39.6582 20.49 39.7697 20.4724C39.8582 20.4586 39.9472 20.4445 40.0361 20.4321C40.1512 20.4159 40.2668 20.4014 40.3825 20.3874C40.469 20.3769 40.5552 20.3661 40.6422 20.357C40.7642 20.3441 40.8871 20.3336 41.0099 20.3231C41.0912 20.3163 41.1725 20.3084 41.2541 20.3026C41.3911 20.2929 41.5288 20.2863 41.6667 20.2797C41.7354 20.2766 41.8036 20.2719 41.8724 20.2694C42.0792 20.2623 42.287 20.258 42.4957 20.258C43.3447 20.258 44.1792 20.3203 44.9963 20.4375C45.8511 20.5603 46.6862 20.7451 47.4968 20.9872C48.3474 21.2412 49.1708 21.5585 49.962 21.9333C49.9735 21.9389 49.9857 21.9439 49.9972 21.9494C50.8102 22.3366 51.5872 22.7867 52.3257 23.2898C53.1088 23.8233 53.8478 24.4174 54.5331 25.0676C54.8402 23.7135 54.9982 22.3451 54.9982 20.981C54.9986 11.8711 47.863 4.7354 38.754 4.7354Z" fill="#D8143A"/>
<path d="M40.3292 38.0588L38.7632 36.493C37.7868 35.5166 36.2035 35.5166 35.227 36.493C34.2505 37.4693 34.2505 39.0527 35.227 40.0293L37.5903 42.3926L38.561 43.3633C39.0493 43.8516 39.6892 44.0955 40.329 44.0955C40.9689 44.0955 41.6089 43.8514 42.097 43.3633L42.496 42.964L49.5983 35.8618C50.5748 34.8853 50.5748 33.302 49.5983 32.3254C48.7686 31.496 47.5025 31.3739 46.5413 31.9537C46.3711 32.0564 46.209 32.1786 46.0622 32.3254L42.496 35.8917L40.3292 38.0588Z" fill="#79AB03"/>
<path d="M42.4962 35.8917L46.0623 32.3256L42.4962 35.8917L40.3291 38.0588L42.4962 35.8917Z" fill="#D8143A"/>
<path d="M28.1621 47.7899C28.2031 47.8486 28.2439 47.9072 28.2859 47.9652C28.2441 47.907 28.2031 47.8486 28.1621 47.7899Z" fill="#D8143A"/>
<path d="M27.7939 47.2451C27.8394 47.3156 27.8866 47.3851 27.9333 47.4549C27.8865 47.385 27.8394 47.3156 27.7939 47.2451Z" fill="#D8143A"/>
<path d="M19.271 48.9096C20.2628 49.7804 21.2866 50.6791 22.3399 51.6106C22.347 51.6171 22.3544 51.6235 22.3617 51.6298L25.8653 54.6563C26.3344 55.0618 26.9167 55.2643 27.4991 55.2646V46.775L27.499 46.7749C27.439 46.6752 27.3817 46.5736 27.3233 46.4726C27.2745 46.3878 27.2251 46.3033 27.1778 46.2178C27.1218 46.1169 27.0676 46.0149 27.0137 45.9128C26.9669 45.8243 26.9206 45.7356 26.8752 45.646C26.8237 45.5446 26.773 45.4427 26.7236 45.34C26.6781 45.2456 26.6339 45.1505 26.5901 45.0551C26.5443 44.9553 26.4978 44.8562 26.4539 44.7557C26.4024 44.6385 26.3539 44.52 26.3051 44.4014C26.2471 44.2605 26.1907 44.119 26.1364 43.9764C26.0871 43.8475 26.0382 43.7187 25.9922 43.5882C25.9594 43.4958 25.9287 43.4024 25.8976 43.3092C25.8589 43.1932 25.8203 43.0767 25.7836 42.9595C25.7541 42.8652 25.7257 42.7703 25.6977 42.6754C25.6622 42.5542 25.6282 42.4323 25.5952 42.3101C25.5707 42.2196 25.5463 42.129 25.5231 42.038C25.4869 41.8949 25.4537 41.7508 25.4213 41.6064C25.4052 41.5353 25.3878 41.4647 25.3727 41.3932C25.3275 41.1809 25.2863 40.967 25.2491 40.7518C25.2381 40.6872 25.2291 40.6223 25.2187 40.5576C25.1931 40.3994 25.1689 40.2408 25.1475 40.0813C25.1365 39.9988 25.1271 39.916 25.1172 39.8331C25.0998 39.6872 25.0844 39.5412 25.0707 39.3944C25.0628 39.3102 25.0553 39.226 25.0486 39.1416C25.0364 38.9861 25.027 38.83 25.0187 38.6736C25.0149 38.6001 25.0101 38.5267 25.0073 38.453C24.9982 38.2234 24.9926 37.9933 24.9926 37.7615C24.9926 36.9127 25.0546 36.078 25.172 35.261C25.2948 34.4063 25.4796 33.571 25.7218 32.7604C25.9797 31.8976 26.3017 31.0619 26.6837 30.2599C26.759 30.1021 26.8375 29.946 26.9173 29.7908C26.9503 29.7263 26.9843 29.6623 27.0184 29.5982C27.063 29.5145 27.1081 29.4312 27.1541 29.3481C27.2654 29.1459 27.3799 28.9457 27.499 28.7483V8.94907C24.3837 6.27686 20.3388 4.73563 16.2446 4.73563C7.13572 4.73539 0 11.8711 0 20.9804C0 31.9916 7.66646 38.722 19.271 48.9096Z" fill="#B8002B"/>
<path d="M25.992 43.5883C25.9592 43.4958 25.9286 43.4024 25.8975 43.3092C25.9285 43.4022 25.9591 43.4957 25.992 43.5883Z" fill="#B8002B"/>
<path d="M26.8753 45.6458C26.8237 45.5443 26.7731 45.4425 26.7236 45.3397C26.773 45.4424 26.8237 45.5442 26.8753 45.6458Z" fill="#B8002B"/>
<path d="M26.5903 45.0548C26.5445 44.9554 26.4979 44.856 26.4541 44.7554C26.4979 44.856 26.5442 44.9551 26.5903 45.0548Z" fill="#B8002B"/>
<path d="M25.0188 38.6731C25.0149 38.5996 25.0101 38.5263 25.0073 38.4525C25.0101 38.5263 25.0149 38.5994 25.0188 38.6731Z" fill="#B8002B"/>
<path d="M27.4992 28.7482C27.3801 28.9456 27.2656 29.1456 27.1543 29.348C27.2659 29.1457 27.3802 28.9454 27.4992 28.7482Z" fill="#B8002B"/>
<path d="M25.1475 40.0809C25.1365 39.9984 25.1271 39.9155 25.1172 39.8327C25.127 39.9155 25.1365 39.9985 25.1475 40.0809Z" fill="#B8002B"/>
<path d="M26.9175 29.7906C26.9506 29.726 26.9843 29.6619 27.0186 29.5979C26.9845 29.662 26.9505 29.726 26.9175 29.7906Z" fill="#B8002B"/>
<path d="M25.2492 40.7513C25.2382 40.6867 25.2292 40.6218 25.2188 40.5571C25.2293 40.6218 25.2381 40.6869 25.2492 40.7513Z" fill="#B8002B"/>
<path d="M25.0709 39.3939C25.063 39.3098 25.0555 39.2255 25.0488 39.1411C25.0556 39.2255 25.0631 39.3098 25.0709 39.3939Z" fill="#B8002B"/>
<path d="M39.168 20.5771C39.2571 20.5598 39.3464 20.5431 39.4363 20.5273C39.3466 20.5431 39.2571 20.5598 39.168 20.5771Z" fill="#D8143A"/>
<path d="M38.5742 20.7023C38.6637 20.6818 38.7536 20.6623 38.8434 20.6431C38.7537 20.6623 38.664 20.6818 38.5742 20.7023Z" fill="#D8143A"/>
<path d="M34.9316 21.9813C35.0298 21.9339 35.1278 21.8861 35.2268 21.8405C35.1277 21.886 35.0298 21.9339 34.9316 21.9813Z" fill="#D8143A"/>
<path d="M35.4727 21.7321C35.5693 21.6896 35.6652 21.6461 35.7627 21.6052C35.6652 21.646 35.5693 21.6897 35.4727 21.7321Z" fill="#D8143A"/>
<path d="M34.4058 22.2453C34.5041 22.1937 34.6022 22.1423 34.7015 22.0927C34.6022 22.1424 34.5042 22.194 34.4058 22.2453Z" fill="#D8143A"/>
<path d="M36.8462 21.194C36.9326 21.1645 37.0199 21.1373 37.1067 21.1091C37.0199 21.1374 36.9326 21.1646 36.8462 21.194Z" fill="#D8143A"/>
<path d="M37.9897 20.8471C38.0788 20.8234 38.1682 20.8011 38.2578 20.7788C38.1685 20.8012 38.0789 20.8235 37.9897 20.8471Z" fill="#D8143A"/>
<path d="M33.8911 22.5258C33.9891 22.4702 34.0875 22.415 34.1865 22.3612C34.0873 22.415 33.989 22.4702 33.8911 22.5258Z" fill="#D8143A"/>
<path d="M37.4141 21.0112C37.502 20.9844 37.5909 20.9595 37.6795 20.9342C37.5908 20.9595 37.5018 20.9844 37.4141 21.0112Z" fill="#D8143A"/>
<path d="M33.3872 22.8227C33.4852 22.7627 33.5837 22.7033 33.6831 22.6451C33.5837 22.7031 33.4854 22.7625 33.3872 22.8227Z" fill="#D8143A"/>
<path d="M32.4131 23.4637C32.513 23.393 32.6139 23.324 32.7154 23.2553C32.6142 23.324 32.5132 23.393 32.4131 23.4637Z" fill="#D8143A"/>
<path d="M28.1265 27.7825C28.2112 27.6609 28.2976 27.5407 28.3852 27.4214C28.2976 27.5408 28.211 27.6609 28.1265 27.7825Z" fill="#D8143A"/>
<path d="M27.8052 28.2594C27.8891 28.1303 27.9752 28.0026 28.0623 27.8756C27.975 28.0026 27.889 28.1303 27.8052 28.2594Z" fill="#D8143A"/>
<path d="M28.4614 27.3181C28.5485 27.2013 28.6371 27.0857 28.727 26.9712C28.637 27.0859 28.5486 27.2013 28.4614 27.3181Z" fill="#D8143A"/>
<path d="M29.1675 26.4327C29.2633 26.32 29.3601 26.208 29.4589 26.0978C29.3601 26.2082 29.2635 26.3201 29.1675 26.4327Z" fill="#D8143A"/>
<path d="M31.9438 23.807C32.0464 23.7292 32.1506 23.6533 32.2551 23.5777C32.1506 23.6534 32.0464 23.7292 31.9438 23.807Z" fill="#D8143A"/>
<path d="M31.4868 24.1653C31.5962 24.0764 31.7075 23.9901 31.819 23.9039C31.7076 23.9901 31.5964 24.0766 31.4868 24.1653Z" fill="#D8143A"/>
<path d="M39.77 20.4719C39.8585 20.458 39.9474 20.444 40.0364 20.4316C39.9474 20.4441 39.8586 20.458 39.77 20.4719Z" fill="#D8143A"/>
<path d="M41.667 20.2794C41.7357 20.2762 41.8039 20.2715 41.8727 20.2691C41.8039 20.2714 41.7357 20.2762 41.667 20.2794Z" fill="#D8143A"/>
<path d="M31.4351 24.2083C30.8895 24.6545 30.3713 25.1328 29.8833 25.6405C30.371 25.133 30.8895 24.6545 31.4351 24.2083Z" fill="#D8143A"/>
<path d="M41.0103 20.3226C41.0916 20.3158 41.1728 20.308 41.2545 20.3021C41.1727 20.3079 41.0916 20.3157 41.0103 20.3226Z" fill="#D8143A"/>
</g>
<defs>
<clipPath id="clip0_22_1130">
<rect width="60" height="60" fill="white"/>
</clipPath>
</defs>
</svg>
