<svg width="50" height="50" viewBox="0 0 50 50" fill="none" xmlns="http://www.w3.org/2000/svg">
<path d="M4.16669 25.4248C4.16669 20.6573 4.16669 18.2735 5.24835 16.2974C6.33002 14.3213 8.30617 13.0948 12.2584 10.6419L16.4251 8.05597C20.6029 5.46309 22.6919 4.16666 25 4.16666C27.3081 4.16666 29.3971 5.46309 33.575 8.05597L37.7417 10.6419C41.694 13.0948 43.67 14.3213 44.7517 16.2974C45.8334 18.2735 45.8334 20.6573 45.8334 25.4248V28.5937C45.8334 36.7204 45.8334 40.7839 43.3925 43.3085C40.9519 45.8333 37.0234 45.8333 29.1667 45.8333H20.8334C12.9766 45.8333 9.04825 45.8333 6.60746 43.3085C4.16669 40.7839 4.16669 36.7204 4.16669 28.5937V25.4248Z" stroke="#4EA8DE" stroke-width="3"/>
<path d="M31.25 37.5H18.75" stroke="#4EA8DE" stroke-width="3" stroke-linecap="round"/>
</svg>
