<svg width="50" height="50" viewBox="0 0 50 50" fill="none" xmlns="http://www.w3.org/2000/svg">
<path d="M4.16663 25.4248C4.16663 20.6573 4.16663 18.2735 5.24829 16.2974C6.32996 14.3213 8.3061 13.0948 12.2584 10.6419L16.425 8.05597C20.6029 5.46309 22.6918 4.16666 25 4.16666C27.3081 4.16666 29.397 5.46309 33.575 8.05597L37.7416 10.6419C41.6939 13.0948 43.67 14.3213 44.7516 16.2974C45.8333 18.2735 45.8333 20.6573 45.8333 25.4248V28.5937C45.8333 36.7204 45.8333 40.7839 43.3925 43.3085C40.9518 45.8333 37.0233 45.8333 29.1666 45.8333H20.8333C12.9765 45.8333 9.04819 45.8333 6.6074 43.3085C4.16663 40.7839 4.16663 36.7204 4.16663 28.5937V25.4248Z" stroke="#BCBCBC" stroke-width="3"/>
<path d="M31.25 37.5H18.75" stroke="#BCBCBC" stroke-width="3" stroke-linecap="round"/>
</svg>
