<svg width="100" height="89" viewBox="0 0 100 89" fill="none" xmlns="http://www.w3.org/2000/svg">
<path d="M36.6894 23.8242C36.7793 23.8805 36.8676 23.9383 36.9535 24C37.0519 24.0625 37.0519 24.0625 37.1535 24.1273C37.7402 24.6984 38.0465 25.2875 38.0683 26.1039C38.0707 26.2906 38.0715 26.4773 38.0715 26.6641C38.0723 26.7656 38.073 26.868 38.0738 26.9734C38.0762 27.2523 38.0777 27.5313 38.0785 27.8102C38.0801 28.1023 38.0816 28.3938 38.084 28.6859C38.0871 29.2383 38.0902 29.7906 38.0926 30.343C38.0957 30.9719 38.0996 31.6008 38.1035 32.2297C38.1121 33.5227 38.1183 34.8164 38.1254 36.1094C41.1582 36.1133 44.191 36.1156 47.2238 36.1172C47.5816 36.1172 47.9394 36.118 48.2973 36.118C48.3683 36.118 48.4394 36.118 48.5129 36.118C49.6676 36.1188 50.8215 36.1203 51.9762 36.1211C53.1598 36.1227 54.3441 36.1234 55.5277 36.1242C56.259 36.1242 56.9902 36.125 57.7207 36.1266C58.2215 36.1273 58.7223 36.1273 59.223 36.1273C59.5121 36.1273 59.8012 36.1273 60.091 36.1281C60.4035 36.1289 60.7168 36.1289 61.0301 36.1281C61.1223 36.1289 61.2144 36.1289 61.309 36.1297C61.3926 36.1289 61.4762 36.1289 61.5621 36.1289C61.6699 36.1289 61.6699 36.1289 61.7808 36.1289C61.9691 36.1258 61.9691 36.1258 62.1098 35.9531C62.1332 35.7648 62.1332 35.7648 62.1301 35.543C62.1308 35.4563 62.1316 35.3688 62.1324 35.2797C62.1316 35.1836 62.1316 35.0875 62.1316 34.9891C62.1324 34.8344 62.1332 34.6805 62.134 34.5258C62.1348 34.3594 62.1355 34.193 62.1355 34.0266C62.1363 33.6797 62.1379 33.3336 62.1394 32.9867C62.1433 32.25 62.1457 31.5141 62.1488 30.7773C62.1512 29.9836 62.1535 29.1898 62.1582 28.3953C62.1598 28.0516 62.1613 27.707 62.1613 27.3625C62.1621 27.1992 62.1629 27.0367 62.1637 26.8734C62.1644 26.675 62.1652 26.4766 62.1644 26.2781C62.1652 26.1906 62.166 26.1031 62.1668 26.0125C62.1668 25.9359 62.1676 25.8602 62.1676 25.782C62.216 25.2508 62.4668 24.7242 62.7832 24.2977C63.4668 23.7758 64.1535 23.618 65.0004 23.6875C65.6465 23.857 66.1941 24.3039 66.5558 24.8609C66.8668 25.4313 66.8191 26.1219 66.8176 26.7508C66.8176 26.8531 66.8176 26.9555 66.8183 27.0609C66.8191 27.3445 66.8191 27.6273 66.8183 27.9102C66.8183 28.2164 66.8191 28.5219 66.8199 28.8273C66.8207 29.4258 66.8207 30.0242 66.8207 30.6227C66.8207 31.1094 66.8207 31.5961 66.8207 32.082C66.8207 32.1516 66.8207 32.2211 66.8207 32.2922C66.8207 32.4328 66.8215 32.5742 66.8215 32.7148C66.8223 34.0344 66.8223 35.3539 66.8215 36.6734C66.8207 37.8797 66.8223 39.0867 66.823 40.293C66.8246 41.5328 66.8254 42.7727 66.8254 44.0125C66.8254 44.7086 66.8254 45.4039 66.8262 46.1C66.8277 46.6922 66.8277 47.2836 66.8262 47.8758C66.8262 48.1781 66.8262 48.4805 66.8269 48.782C66.8277 49.1094 66.8269 49.4375 66.8262 49.7648C66.8269 49.8602 66.8269 49.9555 66.8277 50.0531C66.823 50.7742 66.7207 51.3992 66.2504 51.9688C65.7019 52.5016 65.1941 52.6633 64.4433 52.6914C63.7137 52.6445 63.1769 52.4195 62.6566 51.8906C62.234 51.2828 62.1199 50.7805 62.1308 50.0492C62.1301 49.9555 62.1301 49.8609 62.1293 49.7641C62.1285 49.5086 62.1301 49.2539 62.1316 48.9984C62.1332 48.7297 62.1324 48.4617 62.1316 48.1938C62.1301 47.6867 62.1308 47.1797 62.1324 46.6727C62.1348 45.7633 62.1355 44.8539 62.1332 43.9445C62.1332 43.6781 62.1332 43.4109 62.134 43.1445C62.1355 42.8477 62.1355 42.5516 62.1355 42.2547C62.1363 42.1664 62.1371 42.0789 62.1387 41.9875C62.1379 41.907 62.1379 41.8266 62.1371 41.743C62.1379 41.6383 62.1379 41.6383 62.1379 41.5313C62.1019 41.2977 62.0371 41.2016 61.8754 41.0313C61.6918 40.9844 61.6918 40.9844 61.4808 40.9922C61.3582 40.9906 61.3582 40.9906 61.2324 40.9898C61.1426 40.9898 61.0519 40.9906 60.959 40.9914C60.8637 40.9914 60.7676 40.9906 60.6691 40.9898C60.4027 40.9891 60.1371 40.9891 59.8707 40.9906C59.584 40.9914 59.2973 40.9898 59.0105 40.9891C58.4488 40.9875 57.8863 40.9883 57.3246 40.9891C56.8676 40.9898 56.4113 40.9898 55.9543 40.9891C55.8894 40.9891 55.8246 40.9891 55.7574 40.9891C55.6262 40.9891 55.4941 40.9891 55.3621 40.9891C54.1246 40.9883 52.8871 40.9891 51.6488 40.9906C50.5863 40.9922 49.5246 40.9922 48.4621 40.9906C47.2285 40.9891 45.9957 40.9883 44.7629 40.9891C44.6316 40.9891 44.4996 40.9891 44.3683 40.9891C44.2715 40.9898 44.2715 40.9898 44.1723 40.9898C43.716 40.9898 43.2598 40.9891 42.8043 40.9883C42.248 40.9875 41.6918 40.9883 41.1363 40.9898C40.8527 40.9906 40.5691 40.9906 40.2848 40.9898C39.9777 40.9891 39.6707 40.9898 39.3629 40.9914C39.273 40.9906 39.1832 40.9898 39.0902 40.9898C38.9668 40.9906 38.9668 40.9906 38.841 40.9922C38.7348 40.9922 38.7348 40.9922 38.6262 40.9922C38.3769 41.0438 38.2824 41.1484 38.1254 41.3438C38.0785 41.5305 38.0785 41.5305 38.0863 41.7352C38.0855 41.8141 38.0848 41.8938 38.084 41.975C38.0848 42.0609 38.0855 42.1469 38.0863 42.2359C38.0855 42.3273 38.0855 42.418 38.0848 42.5117C38.084 42.7102 38.084 42.9078 38.0848 43.1063C38.0855 43.4195 38.0848 43.7336 38.0832 44.0469C38.0808 44.6563 38.0808 45.2664 38.0808 45.8758C38.0808 46.6508 38.0801 47.4258 38.0769 48.2C38.0762 48.5617 38.0762 48.9227 38.0769 49.2836C38.0769 49.4742 38.0762 49.6641 38.0754 49.8539C38.0762 49.9398 38.0769 50.025 38.0777 50.1133C38.0715 51.0289 37.8371 51.5617 37.1879 52.2031C37.0957 52.2977 37.0957 52.2977 37.0019 52.3938C36.3683 52.7703 35.5441 52.7352 34.8441 52.5938C34.5402 52.4523 34.3066 52.275 34.0629 52.0469C34.0152 52.0031 33.9676 51.9594 33.9191 51.9141C33.3348 51.3039 33.3254 50.5641 33.3293 49.7594C33.3285 49.6563 33.3285 49.5531 33.3277 49.4469C33.3269 49.1625 33.3269 48.8781 33.3277 48.593C33.3277 48.2859 33.3269 47.9781 33.3262 47.6703C33.3246 47.0688 33.3246 46.4672 33.3254 45.8648C33.3254 45.3758 33.3254 44.8859 33.3246 44.3969C33.3246 44.3273 33.3246 44.2578 33.3246 44.1859C33.3246 44.0438 33.3246 43.9023 33.3246 43.7609C33.323 42.4336 33.3238 41.1063 33.3246 39.7789C33.3254 38.5648 33.3246 37.3516 33.3223 36.1375C33.3207 34.8906 33.3199 33.6438 33.3207 32.3961C33.3207 31.6969 33.3207 30.9969 33.3191 30.2969C33.3183 29.7016 33.3183 29.1055 33.3191 28.5102C33.3199 28.2063 33.3199 27.9023 33.3191 27.5984C33.3176 27.3203 33.3183 27.0422 33.3199 26.7633C33.3199 26.6156 33.3191 26.468 33.3176 26.3203C33.3246 25.5367 33.4965 24.8766 34.0504 24.2992C34.7754 23.6844 35.791 23.4008 36.6894 23.8242Z" fill="#4DA4DC"/>
<path d="M72.6318 28.7412C73.2639 29.3459 73.6092 29.967 73.6318 30.856C73.6326 30.9193 73.6326 30.9826 73.6334 31.0482C73.635 31.1185 73.6365 31.1881 73.6373 31.26C73.642 31.4951 73.6443 31.7295 73.6467 31.9646C73.649 32.1357 73.6521 32.3068 73.6545 32.4779C73.6873 34.7975 73.6834 37.1178 73.6818 39.4381C73.6818 39.9475 73.6818 40.4568 73.6818 40.9662C73.6826 41.4678 73.6826 41.9685 73.6826 42.4693C73.6826 42.7646 73.6826 43.06 73.6826 43.3553C73.6842 45.4193 73.6842 45.4193 73.6514 46.3764C73.6498 46.4654 73.6498 46.4654 73.6482 46.556C73.6209 47.1732 73.3498 47.7365 72.9686 48.2185C72.4193 48.6467 71.9365 48.8053 71.2553 48.7951C71.1959 48.7959 71.1365 48.7967 71.0748 48.7975C70.4287 48.7943 69.9186 48.606 69.4529 48.1404C68.7084 47.2498 68.7936 46.0209 68.7967 44.9295C68.7959 44.7732 68.7959 44.6162 68.7951 44.46C68.7936 44.0381 68.7936 43.6162 68.7943 43.1935C68.7943 42.8404 68.7936 42.4873 68.7936 42.1342C68.792 41.2998 68.7928 40.4662 68.7936 39.6326C68.7943 38.774 68.7928 37.9154 68.7912 37.0568C68.7889 36.3178 68.7889 35.5787 68.7889 34.8396C68.7896 34.3998 68.7896 33.9592 68.7881 33.5185C68.7865 33.1045 68.7873 32.6904 68.7889 32.2756C68.7889 32.1248 68.7889 31.9732 68.7881 31.8217C68.7818 30.7006 68.835 29.7748 69.6584 28.9326C70.4889 28.1865 71.7365 27.9779 72.6318 28.7412Z" fill="#50C6E1"/>
<path d="M30.3079 28.632C30.8001 29.0296 31.1196 29.4695 31.2501 30.0937C31.2712 30.3273 31.2712 30.5585 31.2696 30.7921C31.2704 30.8609 31.2704 30.9296 31.2704 30.9999C31.2712 31.2288 31.2704 31.4577 31.2704 31.6867C31.2704 31.8507 31.2704 32.0156 31.2712 32.1796C31.272 32.6257 31.2712 33.0718 31.2712 33.5179C31.2704 33.9851 31.2712 34.4523 31.2712 34.9195C31.2712 35.7038 31.2712 36.4882 31.2704 37.2726C31.2696 38.1788 31.2696 39.0851 31.2704 39.9921C31.2712 40.7702 31.2712 41.5492 31.2712 42.3281C31.2704 42.7929 31.2704 43.2577 31.2712 43.7226C31.272 44.1593 31.2712 44.5968 31.2704 45.0335C31.2704 45.1945 31.2704 45.3546 31.2704 45.5148C31.2712 45.7335 31.2704 45.9531 31.2696 46.1718C31.2704 46.2351 31.2704 46.2976 31.2712 46.3624C31.2665 46.9921 31.211 47.5429 30.7571 48.0085C30.6977 48.071 30.6384 48.1335 30.5774 48.1984C30.2079 48.5484 29.9899 48.7202 29.4727 48.7757C29.3095 48.7937 29.1462 48.8148 28.9845 48.8437C28.9587 48.8952 28.9329 48.9468 28.9063 48.9999C28.8806 48.9484 28.8548 48.8968 28.8282 48.8437C28.6501 48.807 28.6501 48.807 28.4376 48.7851C27.847 48.6867 27.472 48.4163 27.0462 48.0085C26.5704 47.2882 26.5165 46.5702 26.5188 45.7257C26.5181 45.6109 26.5165 45.4952 26.5157 45.3804C26.5134 45.0695 26.5126 44.7585 26.5126 44.4476C26.5118 44.1163 26.5095 43.7859 26.5079 43.4554C26.5048 42.8968 26.5024 42.3382 26.5009 41.7796C26.5001 41.2148 26.4977 40.6507 26.4946 40.0859C26.4938 39.9827 26.4938 39.9827 26.4938 39.8781C26.4931 39.8093 26.4931 39.7406 26.4923 39.6702C26.4782 37.1507 26.4712 34.6312 26.5126 32.1124C26.5142 32.0265 26.5149 31.9406 26.5165 31.8515C26.5196 31.6148 26.5243 31.3781 26.5298 31.1413C26.5306 31.0734 26.5313 31.0062 26.5321 30.9367C26.5493 30.2679 26.7024 29.5796 27.1767 29.0812C28.0423 28.307 29.2634 27.9382 30.3079 28.632Z" fill="#50C6E1"/>
<path d="M23.5205 31.9004C24.1807 32.4918 24.4416 33.2395 24.4893 34.102C24.4924 34.1652 24.4947 34.2277 24.4978 34.2934C24.501 34.3613 24.5049 34.4293 24.508 34.4988C24.5463 35.391 24.5369 36.284 24.5299 37.177C24.5291 37.3652 24.5275 37.5543 24.526 37.7426C24.5236 38.1348 24.5197 38.5262 24.5166 38.9184C24.5127 39.4191 24.5096 39.9199 24.5072 40.4207C24.5049 40.809 24.5018 41.1973 24.4978 41.5848C24.4963 41.7699 24.4955 41.9543 24.4947 42.1395C24.4939 42.3973 24.4908 42.6551 24.4885 42.9129C24.4885 43.0254 24.4885 43.0254 24.4885 43.1402C24.4775 43.8285 24.3478 44.4699 23.9064 45.016C23.7252 45.1816 23.7252 45.1816 23.5158 45.3285C23.4385 45.3848 23.3611 45.441 23.2814 45.4988C22.7049 45.816 21.9197 45.7691 21.2947 45.6348C20.7596 45.4426 20.2603 44.998 20.0103 44.4871C19.6846 43.7035 19.7439 42.8074 19.7252 41.9738C19.7228 41.8863 19.7197 41.7988 19.7174 41.7082C19.715 41.6285 19.7135 41.5496 19.7111 41.4676C19.701 41.2473 19.701 41.2473 19.5314 41.0316C19.2932 40.9941 19.2932 40.9941 19.0189 40.9926C18.0994 40.9395 17.5807 40.7129 16.9533 40.016C16.5369 39.391 16.4963 38.7473 16.5877 38.0191C16.7385 37.3543 17.1986 36.8566 17.7393 36.4598C18.2252 36.2051 18.7978 36.1895 19.3361 36.1402C19.5955 36.1395 19.5955 36.1395 19.6877 36.0316C19.6971 35.8613 19.7018 35.691 19.7041 35.5215C19.7064 35.4145 19.7088 35.3082 19.7103 35.202C19.7143 35.034 19.7166 34.866 19.7189 34.6988C19.733 33.6645 19.8369 32.7441 20.6103 31.9879C21.5455 31.3285 22.5455 31.2238 23.5205 31.9004Z" fill="#50C6E1"/>
<path d="M79.5312 31.8906C80.3914 32.7969 80.4242 33.7703 80.4304 34.9492C80.432 35.1117 80.4344 35.2734 80.4367 35.4359C80.4375 35.5312 80.4383 35.6265 80.439 35.7258C80.4484 35.8008 80.4586 35.8758 80.4687 35.9531C80.7484 36.1398 80.9797 36.1453 81.3039 36.1726C81.8125 36.2273 82.1859 36.3078 82.5781 36.6562C82.6258 36.6976 82.6734 36.739 82.7226 36.7812C82.8664 36.9156 82.9961 37.0547 83.125 37.2031C83.1836 37.2687 83.1836 37.2687 83.2429 37.3359C83.614 37.825 83.6164 38.4055 83.5937 39C83.4539 39.8023 82.9594 40.3008 82.3289 40.7672C81.989 40.9344 81.6422 40.9328 81.2687 40.9531C80.9773 40.9773 80.8015 41.0195 80.5453 41.1695C80.3 41.5687 80.3523 41.9601 80.3711 42.418C80.4226 44.3273 80.4226 44.3273 79.7734 45.0172C79.132 45.6023 78.5695 45.7328 77.7148 45.7133C77.1164 45.6586 76.7578 45.4883 76.3359 45.0586C75.6508 44.225 75.6914 43.3109 75.6929 42.2789C75.6929 42.189 75.6929 42.0992 75.6929 42.007C75.6922 41.7133 75.6922 41.4195 75.6929 41.1258C75.6929 40.9203 75.6929 40.7148 75.6922 40.5094C75.6922 40.0797 75.6922 39.65 75.6929 39.2203C75.6937 38.7258 75.6929 38.2305 75.6929 37.7351C75.6922 37.257 75.6922 36.7781 75.6929 36.3C75.6929 36.0969 75.6929 35.8945 75.6922 35.6914C75.6922 35.4086 75.6929 35.125 75.6929 34.8414C75.6929 34.7586 75.6929 34.675 75.6922 34.5898C75.6953 33.6687 75.7531 32.8633 76.3804 32.1281C77.2672 31.325 78.5429 31.1601 79.5312 31.8906Z" fill="#50C6E1"/>
<path d="M29.0847 58.4332C29.1582 58.4332 29.2324 58.4325 29.3082 58.4325C29.5566 58.4317 29.8043 58.4325 30.0527 58.4325C30.2324 58.4325 30.4113 58.4325 30.5902 58.4317C31.0839 58.4309 31.5777 58.4309 32.0714 58.4317C32.5488 58.4317 33.0261 58.4309 33.5035 58.4309C34.6003 58.4293 35.6972 58.4293 36.7941 58.4293C37.6418 58.4293 38.4886 58.4293 39.3355 58.4293C39.4566 58.4293 39.5785 58.4293 39.7003 58.4293C39.8832 58.4293 40.0668 58.4286 40.2496 58.4286C41.9543 58.4278 43.6582 58.4278 45.3621 58.4278C45.4582 58.4286 45.4582 58.4286 45.5566 58.4286C45.8824 58.4286 46.2082 58.4286 46.5339 58.4286C46.598 58.4286 46.6628 58.4286 46.73 58.4286C46.8605 58.4286 46.991 58.4286 47.1222 58.4286C49.1582 58.4286 51.1941 58.4286 53.23 58.427C55.5167 58.4254 57.8035 58.4246 60.0902 58.4246C60.3332 58.4246 60.5769 58.4246 60.8207 58.4246C60.8808 58.4246 60.941 58.4246 61.0027 58.4246C61.9097 58.4246 62.816 58.4246 63.723 58.4239C64.7542 58.4223 65.7847 58.4223 66.816 58.4231C67.3417 58.4239 67.8683 58.4239 68.3949 58.4231C68.8761 58.4223 69.3574 58.4223 69.8386 58.4239C70.0128 58.4239 70.1878 58.4239 70.3621 58.4231C70.5988 58.4223 70.8347 58.4231 71.0714 58.4239C71.1402 58.4231 71.2089 58.4231 71.2793 58.4223C71.6472 58.4254 71.8878 58.4504 72.1878 58.6871C72.3683 58.92 72.3699 59.1723 72.3871 59.4614C72.3144 59.734 72.173 59.8426 71.9535 60.0153C71.7089 60.0731 71.4707 60.0676 71.2214 60.0645C71.1472 60.0645 71.073 60.0653 70.9964 60.0661C70.7457 60.0668 70.4949 60.0661 70.2441 60.0645C70.0636 60.0645 69.8824 60.0653 69.7019 60.0661C69.2558 60.0668 68.8097 60.0661 68.3636 60.0645C67.83 60.0629 67.2957 60.0637 66.7621 60.0645C65.7152 60.0661 64.6691 60.0653 63.6222 60.0637C62.7066 60.0621 61.791 60.0614 60.8753 60.0621C60.8152 60.0621 60.7542 60.0621 60.6917 60.0621C60.4457 60.0621 60.1988 60.0621 59.9527 60.0621C57.641 60.0621 55.3292 60.0606 53.0175 60.0575C50.9621 60.0551 48.9074 60.0543 46.8527 60.0551C46.7207 60.0551 46.5886 60.0551 46.4566 60.0551C46.3589 60.0551 46.3589 60.0551 46.2589 60.0551C45.9308 60.0551 45.6019 60.0551 45.2738 60.0551C45.2089 60.0551 45.1441 60.0551 45.0777 60.0551C43.3613 60.0551 41.6457 60.0543 39.93 60.0536C39.8683 60.0536 39.8074 60.0536 39.7449 60.0536C39.6839 60.0536 39.623 60.0536 39.5605 60.0536C39.4996 60.0536 39.4386 60.0536 39.3761 60.0536C39.2535 60.0528 39.1308 60.0528 39.0089 60.0528C38.1543 60.052 37.2996 60.052 36.4449 60.052C35.3441 60.0528 34.2425 60.052 33.1418 60.0496C32.6105 60.0489 32.0793 60.0481 31.548 60.0489C31.0628 60.0489 30.5769 60.0489 30.091 60.0473C29.9152 60.0465 29.7386 60.0465 29.5621 60.0473C29.3238 60.0473 29.0855 60.0465 28.8472 60.0457C28.7425 60.0465 28.7425 60.0465 28.6363 60.0473C28.1738 60.0426 28.1738 60.0426 27.9269 59.9067C27.7113 59.6707 27.7214 59.3864 27.7347 59.0778C27.823 58.8067 27.8769 58.6614 28.1277 58.52C28.4496 58.427 28.7511 58.4317 29.0847 58.4332Z" fill="#4DA4DC"/>
</svg>
