<svg width="250" height="250" viewBox="0 0 250 250" fill="none" xmlns="http://www.w3.org/2000/svg">
<g clip-path="url(#clip0_2_10)">
<path d="M0 0C82.5 0 165 0 250 0C250 82.5 250 165 250 250C167.5 250 85 250 0 250C0 167.5 0 85 0 0Z" fill="white"/>
<path d="M91.7236 87.0605C91.9482 87.2012 92.1689 87.3457 92.3838 87.5C92.6299 87.6562 92.6299 87.6562 92.8838 87.8183C94.3506 89.2461 95.1162 90.7187 95.1709 92.7597C95.1767 93.2265 95.1787 93.6933 95.1787 94.1601C95.1807 94.414 95.1826 94.6699 95.1846 94.9336C95.1904 95.6308 95.1943 96.3281 95.1963 97.0254C95.2002 97.7558 95.2041 98.4844 95.21 99.2148C95.2178 100.596 95.2256 101.977 95.2314 103.357C95.2392 104.93 95.249 106.502 95.2588 108.074C95.2803 111.307 95.2959 114.541 95.3135 117.773C102.895 117.783 110.478 117.789 118.06 117.793C118.954 117.793 119.849 117.795 120.743 117.795C120.921 117.795 121.099 117.795 121.282 117.795C124.169 117.797 127.054 117.801 129.94 117.803C132.899 117.807 135.86 117.809 138.819 117.811C140.647 117.811 142.476 117.812 144.302 117.816C145.554 117.818 146.806 117.818 148.058 117.818C148.78 117.818 149.503 117.818 150.228 117.82C151.009 117.822 151.792 117.822 152.575 117.82C152.806 117.822 153.036 117.822 153.272 117.824C153.481 117.822 153.69 117.822 153.905 117.822C154.175 117.822 154.175 117.822 154.452 117.822C154.923 117.814 154.923 117.814 155.274 117.383C155.333 116.912 155.333 116.912 155.325 116.357C155.327 116.141 155.329 115.922 155.331 115.699C155.329 115.459 155.329 115.219 155.329 114.973C155.331 114.586 155.333 114.201 155.335 113.814C155.337 113.398 155.339 112.982 155.339 112.566C155.341 111.699 155.345 110.834 155.349 109.967C155.358 108.125 155.364 106.285 155.372 104.443C155.378 102.459 155.384 100.475 155.395 98.4883C155.399 97.6289 155.403 96.7676 155.403 95.9062C155.405 95.498 155.407 95.0918 155.409 94.6836C155.411 94.1875 155.413 93.6914 155.411 93.1953C155.413 92.9765 155.415 92.7578 155.417 92.5312C155.417 92.3398 155.419 92.1504 155.419 91.9551C155.54 90.6269 156.167 89.3105 156.958 88.2441C158.667 86.9394 160.384 86.5449 162.501 86.7187C164.116 87.1426 165.485 88.2597 166.39 89.6523C167.167 91.0781 167.048 92.8047 167.044 94.3769C167.044 94.6328 167.044 94.8887 167.046 95.1523C167.048 95.8613 167.048 96.5683 167.046 97.2754C167.046 98.041 167.048 98.8047 167.05 99.5683C167.052 101.064 167.052 102.561 167.052 104.057C167.052 105.273 167.052 106.49 167.052 107.705C167.052 107.879 167.052 108.053 167.052 108.23C167.052 108.582 167.054 108.936 167.054 109.287C167.056 112.586 167.056 115.885 167.054 119.184C167.052 122.199 167.056 125.217 167.058 128.232C167.062 131.332 167.063 134.432 167.063 137.531C167.063 139.271 167.063 141.01 167.065 142.75C167.069 144.23 167.069 145.709 167.065 147.189C167.065 147.945 167.065 148.701 167.067 149.455C167.069 150.273 167.067 151.094 167.065 151.912C167.067 152.15 167.067 152.389 167.069 152.633C167.058 154.436 166.802 155.998 165.626 157.422C164.255 158.754 162.985 159.158 161.108 159.229C159.284 159.111 157.942 158.549 156.642 157.227C155.585 155.707 155.3 154.451 155.327 152.623C155.325 152.389 155.325 152.152 155.323 151.91C155.321 151.271 155.325 150.635 155.329 149.996C155.333 149.324 155.331 148.654 155.329 147.984C155.325 146.717 155.327 145.449 155.331 144.182C155.337 141.908 155.339 139.635 155.333 137.361C155.333 136.695 155.333 136.027 155.335 135.361C155.339 134.619 155.339 133.879 155.339 133.137C155.341 132.916 155.343 132.697 155.347 132.469C155.345 132.268 155.345 132.066 155.343 131.857C155.345 131.596 155.345 131.596 155.345 131.328C155.255 130.744 155.093 130.504 154.688 130.078C154.229 129.961 154.229 129.961 153.702 129.98C153.395 129.977 153.395 129.977 153.081 129.975C152.856 129.975 152.63 129.977 152.397 129.978C152.159 129.978 151.919 129.977 151.673 129.975C151.007 129.973 150.343 129.973 149.677 129.977C148.96 129.978 148.243 129.975 147.526 129.973C146.122 129.969 144.716 129.971 143.312 129.973C142.169 129.975 141.028 129.975 139.886 129.973C139.724 129.973 139.562 129.973 139.394 129.973C139.065 129.973 138.735 129.973 138.405 129.973C135.312 129.971 132.218 129.973 129.122 129.977C126.466 129.98 123.812 129.98 121.155 129.977C118.071 129.973 114.989 129.971 111.907 129.973C111.579 129.973 111.249 129.973 110.921 129.973C110.679 129.975 110.679 129.975 110.431 129.975C109.29 129.975 108.149 129.973 107.011 129.971C105.62 129.969 104.229 129.971 102.841 129.975C102.132 129.977 101.423 129.977 100.712 129.975C99.9443 129.973 99.1768 129.975 98.4072 129.978C98.1826 129.977 97.958 129.975 97.7256 129.975C97.417 129.977 97.417 129.977 97.1025 129.98C96.8369 129.98 96.8369 129.98 96.5654 129.98C95.9424 130.109 95.706 130.371 95.3135 130.859C95.1963 131.326 95.1963 131.326 95.2158 131.838C95.2139 132.035 95.2119 132.234 95.21 132.437C95.2119 132.652 95.2139 132.867 95.2158 133.09C95.2139 133.318 95.2139 133.545 95.2119 133.779C95.21 134.275 95.21 134.77 95.2119 135.266C95.2139 136.049 95.2119 136.834 95.208 137.617C95.2021 139.141 95.2021 140.666 95.2021 142.189C95.2021 144.127 95.2002 146.064 95.1924 148C95.1904 148.904 95.1904 149.807 95.1924 150.709C95.1924 151.186 95.1904 151.66 95.1885 152.135C95.1904 152.35 95.1924 152.562 95.1943 152.783C95.1787 155.072 94.5928 156.404 92.9697 158.008C92.7392 158.244 92.7392 158.244 92.5049 158.484C90.9209 159.426 88.8603 159.338 87.1103 158.984C86.3506 158.631 85.7666 158.187 85.1572 157.617C85.0381 157.508 84.9189 157.398 84.7978 157.285C83.3369 155.76 83.3135 153.91 83.3232 151.898C83.3213 151.641 83.3213 151.383 83.3193 151.117C83.3174 150.406 83.3174 149.695 83.3193 148.982C83.3193 148.215 83.3174 147.445 83.3154 146.676C83.3115 145.172 83.3115 143.668 83.3135 142.162C83.3135 140.939 83.3135 139.715 83.3115 138.492C83.3115 138.318 83.3115 138.145 83.3115 137.965C83.3115 137.609 83.3115 137.256 83.3115 136.902C83.3076 133.584 83.3096 130.266 83.3115 126.947C83.3135 123.912 83.3115 120.879 83.3057 117.844C83.3018 114.727 83.2998 111.609 83.3018 108.49C83.3018 106.742 83.3018 104.992 83.2978 103.242C83.2959 101.754 83.2959 100.264 83.2978 98.7754C83.2998 98.0156 83.2998 97.2558 83.2978 96.4961C83.2939 95.8008 83.2959 95.1055 83.2998 94.4082C83.2998 94.039 83.2978 93.6699 83.2939 93.3008C83.3115 91.3418 83.7412 89.6914 85.126 88.248C86.9385 86.7109 89.4775 86.0019 91.7236 87.0605Z" fill="#4DA4DC"/>
<path d="M181.58 99.353C183.16 100.865 184.023 102.417 184.08 104.64C184.082 104.798 184.082 104.957 184.084 105.121C184.087 105.296 184.091 105.47 184.093 105.65C184.105 106.238 184.111 106.824 184.117 107.412C184.123 107.839 184.13 108.267 184.136 108.695C184.218 114.494 184.209 120.294 184.205 126.095C184.205 127.369 184.205 128.642 184.205 129.916C184.207 131.169 184.207 132.421 184.207 133.673C184.207 134.412 184.207 135.15 184.207 135.888C184.21 141.048 184.21 141.048 184.128 143.441C184.125 143.664 184.125 143.664 184.121 143.89C184.052 145.433 183.375 146.841 182.421 148.046C181.048 149.117 179.841 149.513 178.138 149.488C177.99 149.49 177.841 149.492 177.687 149.494C176.072 149.486 174.796 149.015 173.632 147.851C171.771 145.625 171.984 142.552 171.992 139.824C171.99 139.433 171.99 139.041 171.988 138.65C171.984 137.595 171.984 136.541 171.986 135.484C171.986 134.601 171.984 133.718 171.984 132.835C171.98 130.75 171.982 128.666 171.984 126.582C171.986 124.435 171.982 122.289 171.978 120.142C171.972 118.294 171.972 116.447 171.972 114.599C171.974 113.5 171.974 112.398 171.97 111.296C171.966 110.261 171.968 109.226 171.972 108.189C171.972 107.812 171.972 107.433 171.97 107.054C171.955 104.251 172.087 101.937 174.146 99.8315C176.222 97.9663 179.341 97.4448 181.58 99.353Z" fill="#50C6E1"/>
<path d="M75.7698 99.0799C77.0003 100.074 77.7991 101.174 78.1253 102.734C78.178 103.318 78.178 103.896 78.1741 104.48C78.1761 104.652 78.1761 104.824 78.1761 105C78.178 105.572 78.1761 106.144 78.1761 106.717C78.1761 107.127 78.1761 107.539 78.178 107.949C78.18 109.064 78.178 110.18 78.178 111.295C78.1761 112.463 78.178 113.631 78.178 114.799C78.178 116.76 78.178 118.721 78.1761 120.681C78.1741 122.947 78.1741 125.213 78.1761 127.48C78.178 129.426 78.178 131.373 78.178 133.32C78.1761 134.482 78.1761 135.644 78.178 136.806C78.18 137.898 78.178 138.992 78.1761 140.084C78.1761 140.486 78.1761 140.887 78.1761 141.287C78.178 141.834 78.1761 142.383 78.1741 142.93C78.1761 143.088 78.1761 143.244 78.178 143.406C78.1663 144.98 78.0276 146.357 76.8929 147.521C76.7444 147.678 76.596 147.834 76.4436 147.996C75.5198 148.871 74.9749 149.301 73.6819 149.439C73.2737 149.484 72.8655 149.537 72.4612 149.609C72.3968 149.738 72.3323 149.867 72.2659 150C72.2014 149.871 72.137 149.742 72.0706 149.609C71.6253 149.517 71.6253 149.517 71.094 149.463C69.6175 149.217 68.68 148.541 67.6155 147.521C66.4261 145.721 66.2913 143.926 66.2971 141.814C66.2952 141.527 66.2913 141.238 66.2893 140.951C66.2835 140.174 66.2815 139.396 66.2815 138.619C66.2796 137.791 66.2737 136.965 66.2698 136.138C66.262 134.742 66.2561 133.346 66.2522 131.949C66.2503 130.537 66.2444 129.127 66.2366 127.715C66.2346 127.457 66.2346 127.457 66.2346 127.195C66.2327 127.023 66.2327 126.851 66.2307 126.676C66.1956 120.377 66.178 114.078 66.2815 107.781C66.2854 107.566 66.2874 107.351 66.2913 107.129C66.2991 106.537 66.3108 105.945 66.3245 105.353C66.3264 105.183 66.3284 105.015 66.3304 104.842C66.3733 103.17 66.7561 101.449 67.9417 100.203C70.1057 98.2674 73.1585 97.3455 75.7698 99.0799Z" fill="#50C6E1"/>
<path d="M58.8013 107.251C60.4517 108.729 61.104 110.599 61.2231 112.755C61.231 112.913 61.2368 113.069 61.2446 113.233C61.2524 113.403 61.2622 113.573 61.27 113.747C61.3657 115.978 61.3423 118.21 61.3247 120.442C61.3228 120.913 61.3188 121.386 61.3149 121.856C61.3091 122.837 61.2993 123.815 61.2915 124.796C61.2817 126.048 61.2739 127.3 61.2681 128.552C61.2622 129.522 61.2544 130.493 61.2446 131.462C61.2407 131.925 61.2388 132.386 61.2368 132.849C61.2349 133.493 61.227 134.138 61.2212 134.782C61.2212 135.063 61.2212 135.063 61.2212 135.351C61.1938 137.071 60.8696 138.675 59.7661 140.04C59.313 140.454 59.313 140.454 58.7895 140.821C58.5962 140.962 58.4028 141.103 58.2036 141.247C56.7622 142.04 54.7993 141.923 53.2368 141.587C51.8989 141.106 50.6509 139.995 50.0259 138.718C49.2114 136.759 49.3599 134.519 49.313 132.435C49.3071 132.216 49.2993 131.997 49.2935 131.77C49.2876 131.571 49.2837 131.374 49.2778 131.169C49.2524 130.618 49.2524 130.618 48.8286 130.079C48.2329 129.985 48.2329 129.985 47.5474 129.981C45.2485 129.849 43.9517 129.282 42.3833 127.54C41.3423 125.978 41.2407 124.368 41.4692 122.548C41.8462 120.886 42.9966 119.642 44.3481 118.649C45.563 118.013 46.9946 117.974 48.3403 117.851C48.9888 117.849 48.9888 117.849 49.2192 117.579C49.2427 117.153 49.2544 116.728 49.2603 116.304C49.2661 116.036 49.272 115.77 49.2759 115.505C49.2856 115.085 49.2915 114.665 49.2974 114.247C49.3325 111.661 49.5923 109.36 51.5259 107.47C53.8638 105.821 56.3638 105.56 58.8013 107.251Z" fill="#50C6E1"/>
<path d="M198.828 107.227C200.979 109.492 201.061 111.926 201.076 114.873C201.08 115.279 201.086 115.684 201.092 116.09C201.094 116.328 201.096 116.566 201.098 116.814C201.121 117.002 201.146 117.189 201.172 117.383C201.871 117.85 202.449 117.863 203.26 117.932C204.531 118.068 205.465 118.27 206.445 119.141C206.564 119.244 206.684 119.348 206.807 119.453C207.166 119.789 207.49 120.137 207.813 120.508C207.959 120.672 207.959 120.672 208.107 120.84C209.035 122.062 209.041 123.514 208.984 125C208.635 127.006 207.398 128.252 205.822 129.418C204.973 129.836 204.105 129.832 203.172 129.883C202.443 129.943 202.004 130.049 201.363 130.424C200.75 131.422 200.881 132.4 200.928 133.545C201.057 138.318 201.057 138.318 199.434 140.043C197.83 141.506 196.424 141.832 194.287 141.783C192.791 141.646 191.895 141.221 190.84 140.146C189.127 138.062 189.229 135.777 189.232 133.197C189.232 132.973 189.232 132.748 189.232 132.518C189.23 131.783 189.23 131.049 189.232 130.314C189.232 129.801 189.232 129.287 189.23 128.773C189.23 127.699 189.23 126.625 189.232 125.551C189.234 124.314 189.232 123.076 189.232 121.838C189.23 120.643 189.23 119.445 189.232 118.25C189.232 117.742 189.232 117.236 189.23 116.729C189.23 116.021 189.232 115.312 189.232 114.604C189.232 114.396 189.232 114.187 189.23 113.975C189.238 111.672 189.383 109.658 190.951 107.82C193.168 105.812 196.357 105.4 198.828 107.227Z" fill="#50C6E1"/>
<path d="M72.7118 173.583C72.8954 173.583 73.081 173.581 73.2704 173.581C73.8915 173.579 74.5106 173.581 75.1317 173.581C75.581 173.581 76.0282 173.581 76.4755 173.579C77.7099 173.577 78.9442 173.577 80.1786 173.579C81.372 173.579 82.5653 173.577 83.7587 173.577C86.5009 173.573 89.2431 173.573 91.9853 173.573C94.1044 173.573 96.2216 173.573 98.3388 173.573C98.6415 173.573 98.9462 173.573 99.2509 173.573C99.7079 173.573 100.167 173.571 100.624 173.571C104.886 173.569 109.145 173.569 113.405 173.569C113.645 173.571 113.645 173.571 113.892 173.571C114.706 173.571 115.52 173.571 116.335 173.571C116.495 173.571 116.657 173.571 116.825 173.571C117.151 173.571 117.477 173.571 117.806 173.571C122.895 173.571 127.985 173.571 133.075 173.568C138.792 173.564 144.509 173.562 150.225 173.562C150.833 173.562 151.442 173.562 152.052 173.562C152.202 173.562 152.352 173.562 152.507 173.562C154.774 173.562 157.04 173.562 159.308 173.56C161.886 173.556 164.462 173.556 167.04 173.558C168.354 173.56 169.671 173.56 170.987 173.558C172.19 173.556 173.393 173.556 174.597 173.56C175.032 173.56 175.47 173.56 175.905 173.558C176.497 173.556 177.087 173.558 177.679 173.56C177.85 173.558 178.022 173.558 178.198 173.556C179.118 173.564 179.72 173.626 180.47 174.218C180.921 174.8 180.925 175.431 180.968 176.153C180.786 176.835 180.433 177.107 179.884 177.538C179.272 177.683 178.677 177.669 178.054 177.661C177.868 177.661 177.683 177.663 177.491 177.665C176.864 177.667 176.237 177.665 175.61 177.661C175.159 177.661 174.706 177.663 174.255 177.665C173.14 177.667 172.024 177.665 170.909 177.661C169.575 177.657 168.239 177.659 166.905 177.661C164.288 177.665 161.673 177.663 159.056 177.659C156.767 177.655 154.477 177.653 152.188 177.655C152.038 177.655 151.886 177.655 151.729 177.655C151.114 177.655 150.497 177.655 149.882 177.655C144.102 177.655 138.323 177.651 132.544 177.644C127.405 177.638 122.268 177.636 117.132 177.638C116.802 177.638 116.472 177.638 116.142 177.638C115.897 177.638 115.897 177.638 115.647 177.638C114.827 177.638 114.005 177.638 113.184 177.638C113.022 177.638 112.86 177.638 112.694 177.638C108.403 177.638 104.114 177.636 99.8251 177.634C99.6708 177.634 99.5185 177.634 99.3622 177.634C99.2099 177.634 99.0575 177.634 98.9013 177.634C98.7489 177.634 98.5966 177.634 98.4403 177.634C98.1337 177.632 97.8271 177.632 97.5224 177.632C95.3856 177.63 93.2489 177.63 91.1122 177.63C88.3603 177.632 85.6064 177.63 82.8544 177.624C81.5263 177.622 80.1981 177.62 78.87 177.622C77.6571 177.622 76.4423 177.622 75.2274 177.618C74.788 177.616 74.3466 177.616 73.9052 177.618C73.3095 177.618 72.7138 177.616 72.1181 177.614C71.8564 177.616 71.8564 177.616 71.5907 177.618C70.4345 177.607 70.4345 177.607 69.8173 177.267C69.2782 176.677 69.3036 175.966 69.3368 175.194C69.5575 174.517 69.6923 174.153 70.3192 173.8C71.1239 173.568 71.8778 173.579 72.7118 173.583Z" fill="#4DA4DC"/>
</g>
<defs>
<clipPath id="clip0_2_10">
<rect width="250" height="250" fill="white"/>
</clipPath>
</defs>
</svg>
