<svg width="60" height="60" viewBox="0 0 60 60" fill="none" xmlns="http://www.w3.org/2000/svg">
<path d="M26.6284 15.6H32.9434C33.0429 15.4324 33.1033 15.2444 33.12 15.0502C33.1368 14.856 33.1094 14.6605 33.0401 14.4783L26.6301 6.63667L26.6284 15.6Z" fill="#D2A077"/>
<path d="M21.3401 37.1283C21.255 36.582 21.1404 36.0406 20.9968 35.5067C19.9634 31.8017 19.0968 30.2333 19.4668 26.35C19.9501 23.71 19.9218 18.4117 26.9384 19.2367C28.7918 19.455 31.6768 20.7817 33.3284 20.7533C34.2734 20.7367 34.9618 18.825 35.0234 18.1883C35.1084 17.3117 33.5818 15.8217 32.9434 15.5983C31.4609 15.1184 29.9713 14.6606 28.4751 14.225C26.7434 13.7233 26.8334 11.3833 26.7234 10.55C26.6992 10.3558 26.7328 10.1588 26.8199 9.98362C26.9071 9.80842 27.044 9.66281 27.2134 9.565C27.5634 9.35833 27.8384 9.55167 28.1784 9.77333L29.6534 10.8533C30.4818 11.5633 28.1968 12.92 28.8151 13.1467C28.8151 13.1467 31.7401 14.245 32.9934 14.4733C33.6801 14.5983 36.0501 11.925 36.1884 10.3567C36.2968 9.12333 30.5251 3.55167 26.4101 1.38833C24.9634 0.628334 24.1151 0.186667 23.1618 0.231667C22.0234 0.285001 21.6651 0.735001 20.2484 1.94833C13.8368 7.43333 7.61344 19.295 6.70011 21.92C2.95678 32.6883 2.37178 38.3617 2.23844 41.5667C2.15581 42.5412 2.11355 43.5187 2.11178 44.4967C2.22011 44.4967 0.445112 52.83 2.11178 54.4967C3.77844 56.1633 10.9884 56.1633 10.9884 56.1633C27.6551 62.8117 58.6051 61.0767 58.6051 44.1083C58.6051 23.8217 27.2501 26.5133 21.3401 37.1283Z" fill="#F3D2A2"/>
<path d="M34.3833 53.4633C29.1167 52.91 25.0033 50.3283 24.7717 50.18C24.3988 49.9424 24.1356 49.5664 24.04 49.1348C23.9443 48.7031 24.0241 48.2512 24.2617 47.8783C24.4992 47.5055 24.8752 47.2423 25.3069 47.1466C25.7385 47.051 26.1905 47.1307 26.5633 47.3683C26.63 47.41 33.235 51.5217 39.64 49.8133C43.1817 48.87 46.085 46.2883 48.2683 42.145C48.4743 41.7538 48.8273 41.4605 49.2495 41.3295C49.6718 41.1985 50.1288 41.2407 50.52 41.4467C50.9112 41.6526 51.2045 42.0056 51.3355 42.4279C51.4665 42.8501 51.4243 43.3071 51.2183 43.6983C48.5767 48.7083 44.9617 51.8533 40.4733 53.0417C38.3783 53.595 36.3033 53.665 34.3833 53.4633Z" fill="#D2A077"/>
</svg>
