<svg width="40" height="40" viewBox="0 0 40 40" fill="none" xmlns="http://www.w3.org/2000/svg">
<path fill-rule="evenodd" clip-rule="evenodd" d="M20 2.08334C12.8664 2.08334 7.08338 7.86633 7.08338 15V16.1735C7.08338 17.335 6.73956 18.4707 6.09526 19.437L4.18091 22.3085C1.9591 25.6413 3.65528 30.1713 7.5196 31.2252C8.77895 31.5687 10.0489 31.8592 11.3263 32.0968L11.3294 32.1053C12.6111 35.5252 16.0366 37.9167 20 37.9167C23.9633 37.9167 27.3888 35.5252 28.6705 32.1053L28.6736 32.0968C29.951 31.8592 31.2211 31.5687 32.4805 31.2252C36.3448 30.1713 38.041 25.6413 35.8191 22.3085L33.9048 19.437C33.2605 18.4707 32.9166 17.335 32.9166 16.1735V15C32.9166 7.86633 27.1336 2.08334 20 2.08334ZM25.6273 32.5617C21.8891 33.0083 18.1106 33.0082 14.3725 32.5615C15.5574 34.2642 17.6183 35.4167 20 35.4167C22.3815 35.4167 24.4425 34.2642 25.6273 32.5617ZM9.58338 15C9.58338 9.24704 14.2471 4.58334 20 4.58334C25.753 4.58334 30.4166 9.24704 30.4166 15V16.1735C30.4166 17.8287 30.9066 19.4467 31.8246 20.8238L33.739 23.6953C35.0143 25.6082 34.0408 28.2083 31.8226 28.8133C24.0823 30.9243 15.9178 30.9243 8.17738 28.8133C5.95933 28.2083 4.98576 25.6082 6.26105 23.6953L8.17538 20.8238C9.09346 19.4467 9.58338 17.8287 9.58338 16.1735V15Z" fill="#2D2D2D"/>
</svg>
