<svg width="25" height="25" viewBox="0 0 25 25" fill="none" xmlns="http://www.w3.org/2000/svg">
<path d="M12.5 13.1667C12.128 13.1681 11.7667 13.2917 11.4718 13.5185C11.1768 13.7452 10.9645 14.0625 10.8675 14.4217C10.7704 14.7809 10.794 15.1619 10.9347 15.5064C11.0753 15.8508 11.3251 16.1395 11.6458 16.3281V18.75H13.375V16.3281C13.6287 16.178 13.8393 15.9649 13.9862 15.7093C14.1332 15.4538 14.2115 15.1646 14.2135 14.8698C14.2135 14.6453 14.1691 14.4229 14.0829 14.2156C13.9967 14.0083 13.8703 13.8201 13.711 13.6618C13.5518 13.5035 13.3628 13.3783 13.155 13.2933C12.9471 13.2083 12.7245 13.1653 12.5 13.1667Z" stroke="#48BFE3" stroke-width="2" stroke-linecap="round" stroke-linejoin="round"/>
<path d="M18.901 9.25521H6.09375C4.85111 9.25521 3.84375 10.2626 3.84375 11.5052V20.4063C3.84375 21.6489 4.85111 22.6563 6.09375 22.6563H18.901C20.1437 22.6563 21.151 21.6489 21.151 20.4063V11.5052C21.151 10.2626 20.1437 9.25521 18.901 9.25521Z" stroke="#48BFE3" stroke-width="3" stroke-linecap="round" stroke-linejoin="round"/>
<path d="M6.95312 9.25521V7.89583C6.95313 6.42333 7.53808 5.01113 8.57929 3.96992C9.62051 2.9287 11.0327 2.34375 12.5052 2.34375C13.9777 2.34375 15.3899 2.9287 16.4311 3.96992C17.4723 5.01113 18.0573 6.42333 18.0573 7.89583V9.25521" stroke="#48BFE3" stroke-width="3" stroke-linecap="round" stroke-linejoin="round"/>
</svg>
