<svg width="25" height="25" viewBox="0 0 25 25" fill="none" xmlns="http://www.w3.org/2000/svg">
<path d="M14.5833 2.08333C14.5833 2.08333 16.875 2.29167 19.7917 5.20833C22.7083 8.125 22.9167 10.4167 22.9167 10.4167" stroke="#48BFE3" stroke-width="3" stroke-linecap="round"/>
<path d="M14.799 5.76629C14.799 5.76629 15.8302 6.06093 17.377 7.60772C18.9237 9.15452 19.2184 10.1857 19.2184 10.1857" stroke="#48BFE3" stroke-width="3" stroke-linecap="round"/>
<path d="M10.4558 5.53768L11.1319 6.74906C11.742 7.84227 11.4971 9.27637 10.5361 10.2373C10.5361 10.2373 9.3707 11.4029 11.4838 13.5161C13.5963 15.6286 14.7627 14.4639 14.7627 14.4639C15.7236 13.5029 17.1577 13.258 18.2509 13.8681L19.4623 14.5442C21.1131 15.4654 21.308 17.7804 19.8571 19.2315C18.9852 20.1033 17.9171 20.7818 16.7363 20.8265C14.7487 20.9019 11.3732 20.3989 7.98718 17.0128C4.60117 13.6268 4.09813 10.2513 4.17348 8.26364C4.21824 7.08292 4.89666 6.01482 5.76854 5.14295C7.21953 3.69196 9.53454 3.88692 10.4558 5.53768Z" stroke="#48BFE3" stroke-width="3" stroke-linecap="round"/>
</svg>
