<svg width="40" height="40" viewBox="0 0 40 40" fill="none" xmlns="http://www.w3.org/2000/svg">
<g clip-path="url(#clip0_14_163)">
<path d="M22.0167 32.5016H14.1669C13.7067 32.5016 13.3333 32.1281 13.3333 31.6678C13.3333 31.2076 13.7068 30.8353 14.1669 30.8353H22.0167C22.4757 30.8353 22.8492 31.2077 22.8492 31.6678C22.8492 32.128 22.4757 32.5016 22.0167 32.5016Z" fill="#6930C3"/>
<path d="M10.116 25.8353H2.50001C2.03977 25.8353 1.66632 25.4617 1.66632 25.0015C1.66632 24.5412 2.03985 24.1677 2.50001 24.1677H10.116C10.5768 24.1677 10.9498 24.5412 10.9498 25.0015C10.9498 25.4617 10.5769 25.8353 10.116 25.8353Z" fill="#6930C3"/>
<path d="M4.6991 19.1678H0.833146C0.3729 19.1678 0 18.7949 0 18.3347C0 17.8744 0.3729 17.5009 0.833146 17.5009H4.6991C5.15927 17.5009 5.53225 17.8744 5.53225 18.3347C5.53225 18.7949 5.15927 19.1678 4.6991 19.1678Z" fill="#6930C3"/>
<path d="M7.51652 12.5009H4.16628C3.70603 12.5009 3.33313 12.128 3.33313 11.6678C3.33313 11.2076 3.70603 10.8341 4.16628 10.8341H7.51652C7.97676 10.8341 8.34966 11.2076 8.34966 11.6678C8.34966 12.128 7.97669 12.5009 7.51652 12.5009Z" fill="#6930C3"/>
<path d="M39.4044 24.5157C38.8941 23.6295 37.6405 23.0717 35.4614 22.7579C33.9306 22.537 32.2876 22.4906 31.1792 22.4906C31.0315 22.4906 30.9009 22.4918 30.7873 22.493L23.1909 11.2026C23.0053 10.9256 22.6709 10.7864 22.3437 10.8493C21.2194 11.0654 20.1354 11.1746 19.1217 11.1746C16.8078 11.1746 14.8309 10.6246 13.2452 9.54008C12.0934 8.75209 11.5765 7.95066 11.5472 7.90426C11.3165 7.51003 10.816 7.38362 10.4192 7.61128C10.3532 7.64855 8.79561 8.55544 7.15073 10.7515C6.19922 12.0216 5.40451 13.4731 4.78871 15.0648C4.02518 17.0393 3.53626 19.2372 3.3361 21.598C3.3086 21.9227 3.47399 22.2352 3.75908 22.3952L21.6088 32.3952C21.7334 32.4648 21.8725 32.5014 22.0166 32.5014H38.6829C39.0722 32.5014 39.4104 32.2316 39.4958 31.8507C39.6144 31.3224 40.6226 26.6263 39.4044 24.5157Z" fill="#5390D9"/>
<path d="M39.496 31.851C39.5509 31.6105 39.7889 30.502 39.9171 29.1679H25.8338H22.9102L3.75067 18.6624C3.56082 19.6079 3.42167 20.5876 3.33628 21.5982C3.30878 21.9229 3.47417 22.2354 3.75926 22.3953L21.609 32.3954C21.7335 32.465 21.8727 32.5015 22.0168 32.5015H38.683C39.0723 32.5016 39.4105 32.2318 39.496 31.851Z" fill="#CCD1D9"/>
<path d="M39.496 31.851C39.5509 31.6105 39.7889 30.502 39.9171 29.1679H25.8338H22.9102L3.75067 18.6624C3.56082 19.6079 3.42167 20.5876 3.33628 21.5982C3.30878 21.9229 3.47417 22.2354 3.75926 22.3953L21.609 32.3954C21.7335 32.465 21.8727 32.5015 22.0168 32.5015H38.683C39.0723 32.5016 39.4105 32.2318 39.496 31.851Z" fill="#CCD1D9"/>
<path d="M39.496 31.851C39.5509 31.6105 39.7889 30.502 39.9171 29.1679H25.8338H22.9102L3.75067 18.6624C3.56082 19.6079 3.42167 20.5876 3.33628 21.5982C3.30878 21.9229 3.47417 22.2354 3.75926 22.3953L21.609 32.3954C21.7335 32.465 21.8727 32.5015 22.0168 32.5015H38.683C39.0723 32.5016 39.4105 32.2318 39.496 31.851Z" fill="#CCD1D9"/>
<path d="M39.496 31.851C39.5509 31.6105 39.7889 30.502 39.9171 29.1679H25.8338H22.9102L3.75067 18.6624C3.56082 19.6079 3.42167 20.5876 3.33628 21.5982C3.30878 21.9229 3.47417 22.2354 3.75926 22.3953L21.609 32.3954C21.7335 32.465 21.8727 32.5015 22.0168 32.5015H38.683C39.0723 32.5016 39.4105 32.2318 39.496 31.851Z" fill="#CCD1D9"/>
<path d="M39.496 31.851C39.5509 31.6105 39.7889 30.502 39.9171 29.1679H25.8338H22.9102L3.75067 18.6624C3.56082 19.6079 3.42167 20.5876 3.33628 21.5982C3.30878 21.9229 3.47417 22.2354 3.75926 22.3953L21.609 32.3954C21.7335 32.465 21.8727 32.5015 22.0168 32.5015H38.683C39.0723 32.5016 39.4105 32.2318 39.496 31.851Z" fill="#E6E9ED"/>
<path d="M23.191 11.2026C23.0054 10.9256 22.671 10.7864 22.3438 10.8493C21.2194 11.0654 20.1354 11.1746 19.1217 11.1746C16.8078 11.1746 14.831 10.6246 13.2452 9.54008C12.0935 8.75209 11.5765 7.95066 11.5472 7.90426C11.3165 7.51003 10.816 7.38362 10.4192 7.61128C10.3722 7.63816 9.56297 8.10871 8.50513 9.17687C8.50997 9.18421 13.2159 15.7772 24.5532 13.226L23.191 11.2026Z" fill="#421E7B"/>
<path d="M24.8072 18.4647C24.9365 18.4647 25.0659 18.4348 25.188 18.3725L27.0739 17.4014C27.1472 17.3641 27.2119 17.3165 27.268 17.2622L26.3525 15.9012C26.3391 15.9073 26.3256 15.9127 26.311 15.9195L24.4251 16.8906C24.0161 17.1011 23.855 17.6034 24.065 18.0123C24.214 18.2998 24.5044 18.4647 24.8072 18.4647Z" fill="#434A54"/>
<path d="M26.2573 20.6736C26.3867 20.6736 26.5161 20.6443 26.6382 20.5814L28.5242 19.6103C28.6072 19.5682 28.6792 19.5132 28.7403 19.4497L27.8297 18.0972C27.8077 18.1069 27.7845 18.1167 27.7613 18.1283L25.8753 19.0994C25.4664 19.3099 25.3052 19.8123 25.5152 20.2218C25.6641 20.5088 25.9546 20.6736 26.2573 20.6736Z" fill="#434A54"/>
<path d="M27.7075 22.8116C27.8357 22.8116 27.9662 22.7823 28.0883 22.7188L29.9731 21.7483C30.0537 21.708 30.1233 21.6555 30.1832 21.5957L29.2713 20.239C29.2505 20.2475 29.2309 20.2561 29.2114 20.2665L27.3253 21.2369C26.9164 21.448 26.7553 21.951 26.9653 22.3599C27.1142 22.6468 27.4047 22.8116 27.7075 22.8116Z" fill="#434A54"/>
<path d="M35.0001 32.5016H36.6676C36.6676 32.0414 36.2941 31.6678 35.8338 31.6678C35.3736 31.6678 35.0001 32.0414 35.0001 32.5016Z" fill="#CCD1D9"/>
<path d="M31.6676 32.5016H33.3338C33.3338 32.0414 32.9603 31.6678 32.5 31.6678C32.0398 31.6678 31.6676 32.0414 31.6676 32.5016Z" fill="#CCD1D9"/>
<path d="M28.3338 32.5016H30.0001C30.0001 32.0414 29.6266 31.6678 29.1676 31.6678C28.7062 31.6678 28.3338 32.0414 28.3338 32.5016Z" fill="#CCD1D9"/>
<path d="M26.6676 32.5016C26.6676 32.0414 26.2941 31.6678 25.8338 31.6678C25.3736 31.6678 25.0001 32.0414 25.0001 32.5016H26.6676Z" fill="#CCD1D9"/>
<path d="M22.0166 32.5016H23.3338C23.3325 32.0414 22.9603 31.6678 22.5 31.6678C22.0655 31.6678 21.709 32.0011 21.6699 32.4259C21.7786 32.476 21.897 32.5016 22.0166 32.5016Z" fill="#CCD1D9"/>
<path d="M9.11437 24.0872C8.71397 23.8613 8.2056 24.003 7.97911 24.4034L7.82715 24.6744L9.28101 25.4886L9.43117 25.2225C9.65704 24.8221 9.51539 24.3143 9.11437 24.0872Z" fill="#CCD1D9"/>
<path d="M6.32876 22.5162C5.92774 22.2903 5.41991 22.432 5.1935 22.8324L5.03662 23.1107L6.49049 23.9248L6.64494 23.6515C6.87136 23.2511 6.72979 22.7421 6.32876 22.5162Z" fill="#CCD1D9"/>
<path d="M20.2576 30.3726C19.8567 30.1468 19.3483 30.2884 19.1224 30.6888L18.9881 30.9269L20.4419 31.7424L20.5738 31.508C20.8002 31.1075 20.6586 30.5984 20.2576 30.3726Z" fill="#CCD1D9"/>
<path d="M17.472 28.8016C17.071 28.5757 16.5626 28.7174 16.3368 29.1178L16.1976 29.3643L17.6521 30.1785L17.7882 29.9369C18.0146 29.5365 17.8724 29.0275 17.472 28.8016Z" fill="#CCD1D9"/>
<path d="M14.6863 27.2306C14.2853 27.0047 13.7768 27.1464 13.551 27.5468L13.4076 27.8007L14.8615 28.6149L15.0025 28.3658C15.2283 27.9642 15.0867 27.4564 14.6863 27.2306Z" fill="#CCD1D9"/>
<path d="M11.864 25.6399C11.4564 25.4263 10.9528 25.585 10.7398 25.9928L10.6135 26.2357L12.068 27.0499L12.2175 26.7643C12.4305 26.3554 12.2723 25.8524 11.864 25.6399Z" fill="#CCD1D9"/>
</g>
<defs>
<clipPath id="clip0_14_163">
<rect width="40" height="40" fill="white"/>
</clipPath>
</defs>
</svg>
