<svg width="17" height="16" viewBox="0 0 17 16" fill="none" xmlns="http://www.w3.org/2000/svg">
<path d="M7.7599 1.75929C7.95281 1.32648 8.04931 1.11007 8.18365 1.04343C8.30031 0.985525 8.43731 0.985525 8.55398 1.04343C8.68831 1.11007 8.78481 1.32648 8.97773 1.75929L10.5144 5.20673C10.5715 5.33468 10.6 5.39866 10.6441 5.44765C10.6831 5.491 10.7309 5.52567 10.7841 5.54941C10.8444 5.57624 10.9141 5.58359 11.0534 5.59829L14.807 5.99447C15.2782 6.0442 15.5138 6.06907 15.6187 6.17622C15.7098 6.2693 15.7521 6.39963 15.7331 6.5285C15.7113 6.67683 15.5353 6.83542 15.1833 7.15267L12.3794 9.6795C12.2754 9.77325 12.2233 9.82017 12.1904 9.87725C12.1612 9.92783 12.143 9.98392 12.1369 10.0419C12.13 10.1075 12.1445 10.176 12.1736 10.3131L12.9567 14.0053C13.0551 14.4689 13.1042 14.7007 13.0347 14.8335C12.9743 14.949 12.8635 15.0295 12.7351 15.0512C12.5872 15.0762 12.382 14.9579 11.9715 14.7212L8.7019 12.8353C8.58056 12.7653 8.5199 12.7304 8.4554 12.7167C8.39831 12.7046 8.33931 12.7046 8.28223 12.7167C8.21773 12.7304 8.15706 12.7653 8.03573 12.8353L4.76616 14.7212C4.35568 14.9579 4.15044 15.0762 4.0026 15.0512C3.87417 15.0295 3.7633 14.949 3.70294 14.8335C3.63345 14.7007 3.6826 14.4689 3.78093 14.0053L4.56406 10.3131C4.59313 10.176 4.60766 10.1075 4.60076 10.0419C4.59465 9.98392 4.57643 9.92783 4.54726 9.87725C4.5143 9.82017 4.46227 9.77325 4.35821 9.6795L1.55436 7.15267C1.20235 6.83542 1.02634 6.67683 1.00446 6.5285C0.985462 6.39963 1.0278 6.2693 1.11892 6.17622C1.22382 6.06907 1.45944 6.0442 1.93069 5.99447L5.68427 5.59829C5.82359 5.58359 5.89324 5.57624 5.95347 5.54941C6.00676 5.52567 6.05448 5.491 6.09353 5.44765C6.13765 5.39866 6.16617 5.33468 6.22321 5.20673L7.7599 1.75929Z" stroke="#FCE202" stroke-linecap="round" stroke-linejoin="round"/>
</svg>
