<svg width="30" height="30" viewBox="0 0 30 30" fill="none" xmlns="http://www.w3.org/2000/svg">
<g clip-path="url(#clip0_14_211)">
<path d="M15 0C6.71625 0 0 6.71625 0 15C0 23.2838 6.71625 30 15 30C23.2838 30 30 23.2838 30 15C30 6.71625 23.2838 0 15 0ZM15 28.125C7.76367 28.125 1.875 22.2363 1.875 15C1.875 7.76367 7.76367 1.875 15 1.875C22.2363 1.875 28.125 7.76367 28.125 15C28.125 22.2363 22.2363 28.125 15 28.125Z" fill="#B0BEC5"/>
<path d="M21.6284 18.9771L16.875 14.2238V9.375C16.875 8.33859 16.0364 7.5 15 7.5C13.9636 7.5 13.125 8.33859 13.125 9.375V15.7765L18.9771 21.6286C19.7095 22.3629 20.8962 22.3629 21.6286 21.6286C22.3627 20.8959 22.3627 19.7091 21.6284 18.9771Z" fill="#FD7407"/>
</g>
<defs>
<clipPath id="clip0_14_211">
<rect width="30" height="30" fill="white"/>
</clipPath>
</defs>
</svg>
