<svg width="100" height="100" viewBox="0 0 100 100" fill="none" xmlns="http://www.w3.org/2000/svg">
<path d="M50 50C56.9036 50 62.5 44.4036 62.5 37.5C62.5 30.5964 56.9036 25 50 25C43.0964 25 37.5 30.5964 37.5 37.5C37.5 44.4036 43.0964 50 50 50Z" stroke="#4DA4DC" stroke-width="3"/>
<path d="M74.8713 83.3333C74.2083 71.2854 70.5196 62.5 49.9996 62.5C29.48 62.5 25.7913 71.2854 25.1282 83.3333" stroke="#4DA4DC" stroke-width="3" stroke-linecap="round"/>
<path d="M29.1666 13.9076C35.2952 10.3624 42.4108 8.33334 49.9999 8.33334C73.0116 8.33334 91.6666 26.9881 91.6666 50C91.6666 73.0117 73.0116 91.6667 49.9999 91.6667C26.988 91.6667 8.33325 73.0117 8.33325 50C8.33325 42.4108 10.3623 35.2953 13.9075 29.1667" stroke="#4DA4DC" stroke-width="3" stroke-linecap="round"/>
</svg>
